<svg width="237" height="177" viewBox="0 0 237 177" fill="none" xmlns="http://www.w3.org/2000/svg">
<path d="M36.6064 159.347C81.6633 182.884 154.709 182.884 199.766 159.347C244.823 135.811 244.818 97.6476 199.766 74.1108C154.715 50.5741 81.6633 50.5741 36.6064 74.1108C-8.45058 97.6476 -8.4452 135.821 36.6064 159.347Z" fill="#F5F5F5"/>
<path d="M200.6 141.145C198.081 142.178 195.257 142.178 192.738 141.145C190.587 140.107 190.587 138.456 192.738 137.381C195.256 136.343 198.082 136.343 200.6 137.381C202.772 138.43 202.772 140.123 200.6 141.145Z" fill="#E0E0E0"/>
<path d="M28.1263 138.155C30.6893 139.209 33.5648 139.209 36.1278 138.155C38.3379 137.08 38.3379 135.391 36.1278 134.337C33.5637 133.289 30.6905 133.289 28.1263 134.337C25.9162 135.391 25.9162 137.101 28.1263 138.155Z" fill="#E0E0E0"/>
<path d="M163.781 126.142C165.125 126.314 166.679 125.852 167.352 124.959C168.142 123.911 167.793 122.271 168.174 121.394C168.556 120.518 169.788 120.657 170.363 119.915C170.938 119.173 170.046 117.399 170.363 116.458C170.68 115.517 171.594 114.619 172.008 113.973C172.422 113.328 172.008 112.36 170.594 112.849C169.18 113.339 168.443 115.033 167.072 114.748C165.701 114.463 164.528 115.285 164.507 116.646C164.546 117.178 164.442 117.711 164.206 118.189C163.948 118.609 163.259 118.845 162.948 119.496L163.781 126.142Z" fill="#FFD2D2"/>
<path opacity="0.2" d="M163.781 126.142C165.125 126.314 166.679 125.852 167.352 124.959C168.142 123.911 167.793 122.271 168.174 121.394C168.556 120.518 169.788 120.657 170.363 119.915C170.938 119.173 170.046 117.399 170.363 116.458C170.68 115.517 171.594 114.619 172.008 113.973C172.422 113.328 172.008 112.36 170.594 112.849C169.18 113.339 168.443 115.033 167.072 114.748C165.701 114.463 164.528 115.285 164.507 116.646C164.546 117.178 164.442 117.711 164.206 118.189C163.948 118.609 163.259 118.845 162.948 119.496L163.781 126.142Z" fill="black"/>
<path d="M171.379 113.237C169.406 114.312 164.05 120.464 163.609 123.733" stroke="white" stroke-width="0.5" stroke-miterlimit="10" stroke-linecap="round"/>
<path d="M41.7363 109.72L65.7624 95.8462V36.5715L41.7363 50.4451V109.72Z" fill="#37474F"/>
<path d="M41.7364 50.4451L15.5217 35.3132V94.5825L41.7364 109.72V50.4451Z" fill="#455A64"/>
<path d="M65.7624 36.5715L39.5532 21.4396L15.5217 35.3132L41.7364 50.4451L65.7624 36.5715Z" fill="#37474F"/>
<path d="M25.3354 100.261V90.1677L32.1271 94.0716V104.16L25.3354 100.261Z" fill="#E0E0E0"/>
<path d="M28.2983 91.8723L28.9598 92.2541V102.342L28.2983 101.96V91.8723Z" fill="#263238"/>
<path d="M38.9885 92.9908V87.3661L34.493 84.7688V90.3935L38.9885 92.9908Z" fill="#E0E0E0"/>
<path d="M34.493 90.3935L35.6169 89.7482V85.4195L34.493 84.7688V90.3935Z" fill="#263238"/>
<path d="M38.9885 91.6949L35.6169 89.7483L34.493 90.3935L38.9885 92.9908V91.6949Z" fill="#37474F"/>
<path d="M38.9885 103.767V98.1423L34.493 95.5504V101.175L38.9885 103.767Z" fill="#E0E0E0"/>
<path d="M34.493 101.175L35.6169 100.524V96.1957L34.493 95.5504V101.175Z" fill="#263238"/>
<path d="M38.9885 102.471L35.6169 100.524L34.493 101.175L38.9885 103.767V102.471Z" fill="#37474F"/>
<path d="M38.9885 82.4404V76.8157L34.493 74.2238V79.8485L38.9885 82.4404Z" fill="#E0E0E0"/>
<path d="M34.493 79.8485L35.6169 79.1978V74.869L34.493 74.2238V79.8485Z" fill="#263238"/>
<path d="M38.9885 81.1445L35.6169 79.1979L34.493 79.8485L38.9885 82.4404V81.1445Z" fill="#37474F"/>
<path d="M38.9885 71.89V66.2653L34.493 63.6734V69.2981L38.9885 71.89Z" fill="#E0E0E0"/>
<path d="M34.493 69.2981L35.6169 68.6474V64.3187L34.493 63.6734V69.2981Z" fill="#263238"/>
<path d="M38.9885 70.594L35.6169 68.6474L34.493 69.2981L38.9885 71.89V70.594Z" fill="#37474F"/>
<path d="M38.9885 61.345V55.7149L34.493 53.123V58.7477L38.9885 61.345Z" fill="#E0E0E0"/>
<path d="M34.493 58.7477L35.6169 58.097V53.7736L34.493 53.123V58.7477Z" fill="#263238"/>
<path d="M38.9885 60.0437L35.6169 58.0971L34.493 58.7477L38.9885 61.345V60.0437Z" fill="#37474F"/>
<path d="M22.7704 83.6288V78.0041L18.2749 75.4068V81.0315L22.7704 83.6288Z" fill="#E0E0E0"/>
<path d="M18.2749 81.0315L19.3988 80.3862V76.0575L18.2749 75.4068V81.0315Z" fill="#263238"/>
<path d="M22.7704 82.3328L19.3988 80.3862L18.2749 81.0315L22.7704 83.6288V82.3328Z" fill="#37474F"/>
<path d="M22.7704 94.405V88.7803L18.2749 86.1884V91.8077L22.7704 94.405Z" fill="#E0E0E0"/>
<path d="M18.2749 91.8077L19.3988 91.1624V86.8337L18.2749 86.1884V91.8077Z" fill="#263238"/>
<path d="M22.7704 93.1091L19.3988 91.1625L18.2749 91.8078L22.7704 94.405V93.1091Z" fill="#37474F"/>
<path d="M22.7704 72.987V67.3622L18.2749 64.7704V70.3951L22.7704 72.987Z" fill="#E0E0E0"/>
<path d="M18.2749 70.3951L19.3988 69.7444V65.4156L18.2749 64.7704V70.3951Z" fill="#263238"/>
<path d="M22.7704 71.691L19.3988 69.7444L18.2749 70.3951L22.7704 72.987V71.691Z" fill="#37474F"/>
<path d="M22.7704 62.3505V56.7258L18.2749 54.1286V59.7533L22.7704 62.3505Z" fill="#E0E0E0"/>
<path d="M18.2749 59.7533L19.3988 59.108V54.7792L18.2749 54.1286V59.7533Z" fill="#263238"/>
<path d="M22.7704 61.0546L19.3988 59.108L18.2749 59.7533L22.7704 62.3506V61.0546Z" fill="#37474F"/>
<path d="M22.7704 51.7087V46.084L18.2749 43.4921V49.1168L22.7704 51.7087Z" fill="#FAFAFA"/>
<path d="M18.2749 49.1168L19.3988 48.4662V44.1374L18.2749 43.4921V49.1168Z" fill="#263238"/>
<path d="M22.7704 50.4128L19.3988 48.4662L18.2749 49.1168L22.7704 51.7087V50.4128Z" fill="#37474F"/>
<path d="M25.3354 47.2832L27.9542 48.7942V86.624L25.3354 85.1183V47.2832Z" fill="#FAFAFA"/>
<path d="M25.3354 47.2832L26.4432 47.9231V84.4945L25.3354 85.1183V47.2832Z" fill="#263238"/>
<path d="M26.4432 84.4945L27.9542 85.3334V86.6239L25.3354 85.1183L26.4432 84.4945Z" fill="#37474F"/>
<path d="M29.5028 49.6654L32.127 51.171V89.0062L29.5028 87.4951V49.6654Z" fill="#FAFAFA"/>
<path d="M29.5028 49.6654L30.6105 50.3053V86.8714L29.5028 87.4951V49.6654Z" fill="#263238"/>
<path d="M30.6105 86.8713L32.127 87.7102V89.0061L29.5028 87.4951L30.6105 86.8713Z" fill="#37474F"/>
<path d="M44.5165 92.9908V87.3661L49.0066 84.7688V90.3935L44.5165 92.9908Z" fill="#E0E0E0"/>
<path d="M49.0066 90.3935L47.8827 89.7482L47.8881 85.4195L49.0066 84.7688V90.3935Z" fill="#455A64"/>
<path d="M44.5165 91.6949L47.8827 89.7483L49.0066 90.3935L44.5165 92.9908V91.6949Z" fill="#263238"/>
<path d="M51.5017 88.9739V83.3492L55.9972 80.7573V86.382L51.5017 88.9739Z" fill="#E0E0E0"/>
<path d="M55.9972 86.382L54.8733 85.7313V81.4026L55.9972 80.7573V86.382Z" fill="#455A64"/>
<path d="M51.5017 87.6779L54.8733 85.7313L55.9972 86.382L51.5017 88.9739V87.6779Z" fill="#263238"/>
<path d="M58.4868 84.9623V79.3376L62.9823 76.7403V82.3651L58.4868 84.9623Z" fill="#E0E0E0"/>
<path d="M62.9824 82.3651L61.8585 81.7198V77.391L62.9824 76.7403V82.3651Z" fill="#455A64"/>
<path d="M58.4868 83.661L61.8584 81.7198L62.9823 82.3651L58.4868 84.9624V83.661Z" fill="#263238"/>
<path d="M44.5165 103.767V98.1423L49.0066 95.5504V101.175L44.5165 103.767Z" fill="#E0E0E0"/>
<path d="M49.0066 101.175L47.8827 100.524L47.8881 96.1957L49.0066 95.5504V101.175Z" fill="#455A64"/>
<path d="M44.5165 102.471L47.8827 100.524L49.0066 101.175L44.5165 103.767V102.471Z" fill="#263238"/>
<path d="M51.5017 99.7555V94.1254L55.9972 91.5335V97.1582L51.5017 99.7555Z" fill="#E0E0E0"/>
<path d="M55.9972 97.1582L54.8733 96.5076V92.1842L55.9972 91.5335V97.1582Z" fill="#455A64"/>
<path d="M51.5017 98.4542L54.8733 96.5076L55.9972 97.1583L51.5017 99.7555V98.4542Z" fill="#263238"/>
<path d="M58.4868 95.7386V90.1139L62.9823 87.5166V93.1414L58.4868 95.7386Z" fill="#E0E0E0"/>
<path d="M62.9824 93.1414L61.8585 92.4961V88.1673L62.9824 87.5166V93.1414Z" fill="#455A64"/>
<path d="M58.4868 94.4427L61.8584 92.4961L62.9823 93.1414L58.4868 95.7386V94.4427Z" fill="#263238"/>
<path d="M44.5165 82.4404V76.8157L49.0066 74.2238V79.8485L44.5165 82.4404Z" fill="#E0E0E0"/>
<path d="M49.0066 79.8485L47.8827 79.1978L47.8881 74.869L49.0066 74.2238V79.8485Z" fill="#455A64"/>
<path d="M44.5165 81.1445L47.8827 79.1979L49.0066 79.8485L44.5165 82.4404V81.1445Z" fill="#263238"/>
<path d="M51.5017 78.3805V72.7557L55.9972 70.1638V75.7886L51.5017 78.3805Z" fill="#E0E0E0"/>
<path d="M55.9972 75.7886L54.8733 75.1379V70.8091L55.9972 70.1638V75.7886Z" fill="#455A64"/>
<path d="M51.5017 77.0845L54.8733 75.1379L55.9972 75.7886L51.5017 78.3805V77.0845Z" fill="#263238"/>
<path d="M58.4868 74.3206V68.6959L62.9823 66.104V71.7287L58.4868 74.3206Z" fill="#E0E0E0"/>
<path d="M62.9824 71.7287L61.8585 71.078V66.7492L62.9824 66.104V71.7287Z" fill="#455A64"/>
<path d="M58.4868 73.0246L61.8584 71.078L62.9823 71.7287L58.4868 74.3206V73.0246Z" fill="#263238"/>
<path d="M44.5165 71.89V66.2653L49.0066 63.6734V69.2981L44.5165 71.89Z" fill="#E0E0E0"/>
<path d="M49.0066 69.2981L47.8827 68.6474L47.8881 64.3187L49.0066 63.6734V69.2981Z" fill="#455A64"/>
<path d="M44.5165 70.594L47.8827 68.6474L49.0066 69.2981L44.5165 71.89V70.594Z" fill="#263238"/>
<path d="M51.5017 67.7871V62.1624L55.9972 59.5651V65.1952L51.5017 67.7871Z" fill="#E0E0E0"/>
<path d="M55.9972 65.1952L54.8733 64.5445V60.2158L55.9972 59.5651V65.1952Z" fill="#455A64"/>
<path d="M51.5017 66.4911L54.8733 64.5445L55.9972 65.1952L51.5017 67.787V66.4911Z" fill="#263238"/>
<path d="M58.4868 63.6842V58.0594L62.9823 55.4622V61.0869L58.4868 63.6842Z" fill="#E0E0E0"/>
<path d="M62.9824 61.0869L61.8585 60.4416V56.1128L62.9824 55.4622V61.0869Z" fill="#455A64"/>
<path d="M58.4868 62.3882L61.8584 60.4416L62.9823 61.0869L58.4868 63.6842V62.3882Z" fill="#263238"/>
<path d="M44.5165 61.345V55.7149L49.0066 53.123V58.7477L44.5165 61.345Z" fill="#E0E0E0"/>
<path d="M49.0066 58.7477L47.8827 58.097L47.8881 53.7736L49.0066 53.123V58.7477Z" fill="#455A64"/>
<path d="M44.5165 60.0437L47.8827 58.0971L49.0066 58.7477L44.5165 61.345V60.0437Z" fill="#263238"/>
<path d="M51.5017 57.1937V51.5689L55.9972 48.9717V54.5964L51.5017 57.1937Z" fill="#E0E0E0"/>
<path d="M55.9972 54.5964L54.8733 53.9511V49.6223L55.9972 48.9717V54.5964Z" fill="#455A64"/>
<path d="M51.5017 55.8977L54.8733 53.9511L55.9972 54.5964L51.5017 57.1936V55.8977Z" fill="#263238"/>
<path d="M58.4868 53.0423V47.4176L62.9823 44.8257V50.4505L58.4868 53.0423Z" fill="#E0E0E0"/>
<path d="M62.9824 50.4505L61.8585 49.7998V45.471L62.9824 44.8257V50.4505Z" fill="#455A64"/>
<path d="M58.4868 51.7464L61.8584 49.7998L62.9823 50.4505L58.4868 53.0423V51.7464Z" fill="#263238"/>
<path d="M19.8936 35.3131L39.5532 23.9615L61.3907 36.5714L41.7364 47.9231L19.8936 35.3131Z" fill="#F0F0F0"/>
<path d="M39.5532 23.9615V26.4835L59.2075 37.8351L61.3907 36.5714L39.5532 23.9615Z" fill="#455A64"/>
<path d="M39.5532 23.9615L19.8936 35.3131L22.0768 36.5714L39.5532 26.4835V23.9615Z" fill="#263238"/>
<path d="M193.34 109.72L169.314 95.8462V36.5715L193.346 50.4451L193.34 109.72Z" fill="#455A64"/>
<path d="M193.346 50.4451L219.555 35.3132V94.5825L193.34 109.72L193.346 50.4451Z" fill="#37474F"/>
<path d="M169.314 36.5715L195.529 21.4396L219.555 35.3132L193.346 50.4451L169.314 36.5715Z" fill="#37474F"/>
<path d="M209.747 100.261V90.1677L202.95 94.0716L202.955 104.16L209.747 100.261Z" fill="#E0E0E0"/>
<path d="M206.778 91.8723L206.122 92.2541V102.342L206.778 101.96V91.8723Z" fill="#263238"/>
<path d="M196.088 92.9908V87.3661L200.584 84.7688V90.3935L196.088 92.9908Z" fill="#E0E0E0"/>
<path d="M200.584 90.3935L199.46 89.7482V85.4195L200.584 84.7688V90.3935Z" fill="#263238"/>
<path d="M196.088 91.6949L199.46 89.7483L200.584 90.3935L196.088 92.9908V91.6949Z" fill="#455A64"/>
<path d="M196.088 103.767V98.1423L200.584 95.5504V101.175L196.088 103.767Z" fill="#E0E0E0"/>
<path d="M200.584 101.175L199.46 100.524V96.1957L200.584 95.5504V101.175Z" fill="#263238"/>
<path d="M196.088 102.471L199.46 100.524L200.584 101.175L196.088 103.767V102.471Z" fill="#455A64"/>
<path d="M196.088 82.4404V76.8157L200.584 74.2238V79.8485L196.088 82.4404Z" fill="#E0E0E0"/>
<path d="M200.584 79.8485L199.46 79.1978V74.869L200.584 74.2238V79.8485Z" fill="#263238"/>
<path d="M196.088 81.1445L199.46 79.1979L200.584 79.8485L196.088 82.4404V81.1445Z" fill="#455A64"/>
<path d="M196.088 71.89V66.2653L200.584 63.6734V69.2981L196.088 71.89Z" fill="#E0E0E0"/>
<path d="M200.584 69.2981L199.46 68.6474V64.3187L200.584 63.6734V69.2981Z" fill="#263238"/>
<path d="M196.088 70.594L199.46 68.6474L200.584 69.2981L196.088 71.89V70.594Z" fill="#455A64"/>
<path d="M196.088 61.345V55.7149L200.584 53.123V58.7477L196.088 61.345Z" fill="#E0E0E0"/>
<path d="M200.584 58.7477L199.46 58.097V53.7736L200.584 53.123V58.7477Z" fill="#263238"/>
<path d="M196.088 60.0437L199.46 58.0971L200.584 58.7477L196.088 61.345V60.0437Z" fill="#455A64"/>
<path d="M212.312 83.6288V78.0041L216.802 75.4068V81.0315L212.312 83.6288Z" fill="#E0E0E0"/>
<path d="M216.802 81.0315L215.683 80.3862V76.0575L216.802 75.4068V81.0315Z" fill="#263238"/>
<path d="M212.312 82.3328L215.683 80.3862L216.802 81.0315L212.312 83.6288V82.3328Z" fill="#455A64"/>
<path d="M212.312 94.405V88.7803L216.802 86.1884V91.8077L212.312 94.405Z" fill="#E0E0E0"/>
<path d="M216.802 91.8077L215.683 91.1624V86.8337L216.802 86.1884V91.8077Z" fill="#263238"/>
<path d="M212.312 93.1091L215.683 91.1625L216.802 91.8078L212.312 94.405V93.1091Z" fill="#455A64"/>
<path d="M212.312 72.987V67.3622L216.802 64.7704V70.3951L212.312 72.987Z" fill="#E0E0E0"/>
<path d="M216.802 70.3951L215.683 69.7444V65.4156L216.802 64.7704V70.3951Z" fill="#263238"/>
<path d="M212.312 71.691L215.683 69.7444L216.802 70.3951L212.312 72.987V71.691Z" fill="#455A64"/>
<path d="M212.312 62.3505V56.7258L216.802 54.1286V59.7533L212.312 62.3505Z" fill="#E0E0E0"/>
<path d="M216.802 59.7533L215.683 59.108V54.7792L216.802 54.1286V59.7533Z" fill="#263238"/>
<path d="M212.312 61.0546L215.683 59.108L216.802 59.7533L212.312 62.3506V61.0546Z" fill="#455A64"/>
<path d="M212.312 51.7087V46.084L216.802 43.4921V49.1168L212.312 51.7087Z" fill="#FAFAFA"/>
<path d="M216.802 49.1168L215.683 48.4662V44.1374L216.802 43.4921V49.1168Z" fill="#263238"/>
<path d="M212.312 50.4128L215.683 48.4662L216.802 49.1168L212.312 51.7087V50.4128Z" fill="#455A64"/>
<path d="M209.747 47.2832L207.123 48.7942V86.624L209.747 85.1183V47.2832Z" fill="#FAFAFA"/>
<path d="M209.747 47.2832L208.634 47.9231V84.4945L209.747 85.1183V47.2832Z" fill="#263238"/>
<path d="M208.634 84.4945L207.123 85.3334V86.6239L209.747 85.1183L208.634 84.4945Z" fill="#455A64"/>
<path d="M205.574 49.6654L202.955 51.171V89.0062L205.574 87.4951V49.6654Z" fill="#FAFAFA"/>
<path d="M205.574 49.6654L204.466 50.3053V86.8714L205.574 87.4951V49.6654Z" fill="#263238"/>
<path d="M204.466 86.8713L202.955 87.7102V89.0061L205.574 87.4951L204.466 86.8713Z" fill="#455A64"/>
<path d="M190.566 92.9908V87.3661L186.07 84.7688V90.3935L190.566 92.9908Z" fill="#E0E0E0"/>
<path d="M186.07 90.3935L187.194 89.7482V85.4195L186.07 84.7688V90.3935Z" fill="#37474F"/>
<path d="M190.566 91.6949L187.194 89.7483L186.07 90.3935L190.566 92.9908V91.6949Z" fill="#263238"/>
<path d="M183.575 88.9739V83.3492L179.085 80.7573V86.382L183.575 88.9739Z" fill="#E0E0E0"/>
<path d="M179.085 86.382L180.203 85.7313V81.4026L179.085 80.7573V86.382Z" fill="#37474F"/>
<path d="M183.575 87.6779L180.203 85.7313L179.085 86.382L183.575 88.9739V87.6779Z" fill="#263238"/>
<path d="M176.59 84.9623V79.3376L172.094 76.7403V82.3651L176.59 84.9623Z" fill="#E0E0E0"/>
<path d="M172.094 82.3651L173.218 81.7198V77.391L172.094 76.7403V82.3651Z" fill="#37474F"/>
<path d="M176.59 83.661L173.218 81.7198L172.094 82.3651L176.59 84.9624V83.661Z" fill="#263238"/>
<path d="M190.566 103.767V98.1423L186.07 95.5504V101.175L190.566 103.767Z" fill="#E0E0E0"/>
<path d="M186.07 101.175L187.194 100.524V96.1957L186.07 95.5504V101.175Z" fill="#37474F"/>
<path d="M190.566 102.471L187.194 100.524L186.07 101.175L190.566 103.767V102.471Z" fill="#263238"/>
<path d="M183.575 99.7555V94.1254L179.085 91.5335V97.1582L183.575 99.7555Z" fill="#E0E0E0"/>
<path d="M179.085 97.1582L180.203 96.5076V92.1842L179.085 91.5335V97.1582Z" fill="#37474F"/>
<path d="M183.575 98.4542L180.203 96.5076L179.085 97.1583L183.575 99.7555V98.4542Z" fill="#263238"/>
<path d="M176.59 95.7386V90.1139L172.094 87.5166V93.1414L176.59 95.7386Z" fill="#E0E0E0"/>
<path d="M172.094 93.1414L173.218 92.4961V88.1673L172.094 87.5166V93.1414Z" fill="#37474F"/>
<path d="M176.59 94.4427L173.218 92.4961L172.094 93.1414L176.59 95.7386V94.4427Z" fill="#263238"/>
<path d="M190.566 82.4404V76.8157L186.07 74.2238V79.8485L190.566 82.4404Z" fill="#E0E0E0"/>
<path d="M186.07 79.8485L187.194 79.1978V74.869L186.07 74.2238V79.8485Z" fill="#37474F"/>
<path d="M190.566 81.1445L187.194 79.1979L186.07 79.8485L190.566 82.4404V81.1445Z" fill="#263238"/>
<path d="M183.575 78.3805V72.7557L179.085 70.1638V75.7886L183.575 78.3805Z" fill="#E0E0E0"/>
<path d="M179.085 75.7886L180.203 75.1379V70.8091L179.085 70.1638V75.7886Z" fill="#37474F"/>
<path d="M183.575 77.0845L180.203 75.1379L179.085 75.7886L183.575 78.3805V77.0845Z" fill="#263238"/>
<path d="M176.59 74.3206V68.6959L172.094 66.104V71.7287L176.59 74.3206Z" fill="#E0E0E0"/>
<path d="M172.094 71.7287L173.218 71.078V66.7492L172.094 66.104V71.7287Z" fill="#37474F"/>
<path d="M176.59 73.0246L173.218 71.078L172.094 71.7287L176.59 74.3206V73.0246Z" fill="#263238"/>
<path d="M190.566 71.89V66.2653L186.07 63.6734V69.2981L190.566 71.89Z" fill="#E0E0E0"/>
<path d="M186.07 69.2981L187.194 68.6474V64.3187L186.07 63.6734V69.2981Z" fill="#37474F"/>
<path d="M190.566 70.594L187.194 68.6474L186.07 69.2981L190.566 71.89V70.594Z" fill="#263238"/>
<path d="M183.575 67.7871V62.1624L179.085 59.5651V65.1952L183.575 67.7871Z" fill="#E0E0E0"/>
<path d="M179.085 65.1952L180.203 64.5445V60.2158L179.085 59.5651V65.1952Z" fill="#37474F"/>
<path d="M183.575 66.4911L180.203 64.5445L179.085 65.1952L183.575 67.787V66.4911Z" fill="#263238"/>
<path d="M176.59 63.6842V58.0594L172.094 55.4622V61.0869L176.59 63.6842Z" fill="#E0E0E0"/>
<path d="M172.094 61.0869L173.218 60.4416V56.1128L172.094 55.4622V61.0869Z" fill="#37474F"/>
<path d="M176.59 62.3882L173.218 60.4416L172.094 61.0869L176.59 63.6842V62.3882Z" fill="#263238"/>
<path d="M190.566 61.345V55.7149L186.07 53.123V58.7477L190.566 61.345Z" fill="#E0E0E0"/>
<path d="M186.07 58.7477L187.194 58.097V53.7736L186.07 53.123V58.7477Z" fill="#37474F"/>
<path d="M190.566 60.0437L187.194 58.0971L186.07 58.7477L190.566 61.345V60.0437Z" fill="#263238"/>
<path d="M183.575 57.1937V51.5689L179.085 48.9717V54.5964L183.575 57.1937Z" fill="#E0E0E0"/>
<path d="M179.085 54.5964L180.203 53.9511V49.6223L179.085 48.9717V54.5964Z" fill="#37474F"/>
<path d="M183.575 55.8977L180.203 53.9511L179.085 54.5964L183.575 57.1936V55.8977Z" fill="#263238"/>
<path d="M176.59 53.0423V47.4176L172.094 44.8257V50.4505L176.59 53.0423Z" fill="#E0E0E0"/>
<path d="M172.094 50.4505L173.218 49.7998V45.471L172.094 44.8257V50.4505Z" fill="#37474F"/>
<path d="M176.59 51.7464L173.218 49.7998L172.094 50.4505L176.59 53.0423V51.7464Z" fill="#263238"/>
<path d="M215.189 35.3131L195.529 23.9615L173.686 36.5714L193.346 47.9231L215.189 35.3131Z" fill="#F0F0F0"/>
<path d="M195.529 23.9615V26.4835L175.869 37.8351L173.686 36.5714L195.529 23.9615Z" fill="#263238"/>
<path d="M195.529 23.9615L215.189 35.3131L213 36.5714L195.529 26.4835V23.9615Z" fill="#455A64"/>
<path d="M157.705 165.112C154.971 166.236 151.904 166.236 149.171 165.112C146.815 163.988 146.815 162.171 149.171 161.047C151.904 159.923 154.971 159.923 157.705 161.047C160.065 162.171 160.065 163.988 157.705 165.112Z" fill="#E0E0E0"/>
<path d="M69.4459 161.407C72.1813 162.531 75.2497 162.531 77.9852 161.407C80.3404 160.283 80.3404 158.466 77.9852 157.342C75.2497 156.218 72.1813 156.218 69.4459 157.342C67.1014 158.466 67.1014 160.283 69.4459 161.407Z" fill="#E0E0E0"/>
<path d="M119.353 160.751L171.632 130.568C171.983 130.381 172.277 130.103 172.482 129.763C172.686 129.422 172.795 129.032 172.795 128.635C172.795 128.237 172.686 127.847 172.482 127.507C172.277 127.166 171.983 126.888 171.632 126.701L119.348 96.5183C118.987 96.3355 118.588 96.2402 118.184 96.2402C117.779 96.2402 117.38 96.3355 117.02 96.5183L64.7408 126.68C64.3897 126.866 64.0961 127.145 63.8913 127.485C63.6865 127.826 63.5782 128.216 63.5782 128.613C63.5782 129.011 63.6865 129.4 63.8913 129.741C64.0961 130.082 64.3897 130.36 64.7408 130.546L117.025 160.729C117.384 160.916 117.782 161.015 118.187 161.018C118.591 161.022 118.991 160.93 119.353 160.751Z" fill="#FFD2D2"/>
<path d="M119.353 160.751L171.632 130.568C171.983 130.381 172.277 130.103 172.482 129.763C172.686 129.422 172.795 129.032 172.795 128.635C172.795 128.237 172.686 127.847 172.482 127.507C172.277 127.166 171.983 126.888 171.632 126.701L119.348 96.5183C118.987 96.3355 118.588 96.2402 118.184 96.2402C117.779 96.2402 117.38 96.3355 117.02 96.5183L64.7408 126.68C64.3897 126.866 64.0961 127.145 63.8913 127.485C63.6865 127.826 63.5782 128.216 63.5782 128.613C63.5782 129.011 63.6865 129.4 63.8913 129.741C64.0961 130.082 64.3897 130.36 64.7408 130.546L117.025 160.729C117.384 160.916 117.782 161.015 118.187 161.018C118.591 161.022 118.991 160.93 119.353 160.751Z" fill="#FFD2D2"/>
<path d="M119.353 160.751L171.632 130.568C171.983 130.381 172.277 130.103 172.482 129.763C172.686 129.422 172.795 129.032 172.795 128.635C172.795 128.237 172.686 127.847 172.482 127.507C172.277 127.166 171.983 126.888 171.632 126.701L119.348 96.5183C118.987 96.3355 118.588 96.2402 118.184 96.2402C117.779 96.2402 117.38 96.3355 117.02 96.5183L64.7408 126.68C64.3897 126.866 64.0961 127.145 63.8913 127.485C63.6865 127.826 63.5782 128.216 63.5782 128.613C63.5782 129.011 63.6865 129.4 63.8913 129.741C64.0961 130.082 64.3897 130.36 64.7408 130.546L117.025 160.729C117.384 160.916 117.782 161.015 118.187 161.018C118.591 161.022 118.991 160.93 119.353 160.751Z" fill="#FFD2D2"/>
<path opacity="0.2" d="M119.353 160.751L171.632 130.568C171.983 130.381 172.277 130.103 172.482 129.763C172.686 129.422 172.795 129.032 172.795 128.635C172.795 128.237 172.686 127.847 172.482 127.507C172.277 127.166 171.983 126.888 171.632 126.701L119.348 96.5183C118.987 96.3355 118.588 96.2402 118.184 96.2402C117.779 96.2402 117.38 96.3355 117.02 96.5183L64.7408 126.68C64.3897 126.866 64.0961 127.145 63.8913 127.485C63.6865 127.826 63.5782 128.216 63.5782 128.613C63.5782 129.011 63.6865 129.4 63.8913 129.741C64.0961 130.082 64.3897 130.36 64.7408 130.546L117.025 160.729C117.384 160.916 117.782 161.015 118.187 161.018C118.591 161.022 118.991 160.93 119.353 160.751Z" fill="black"/>
<path d="M64.7407 128.046L117.025 158.229C117.386 158.412 117.784 158.507 118.189 158.507C118.594 158.507 118.992 158.412 119.353 158.229L171.632 128.046C171.772 127.998 171.894 127.908 171.981 127.787C172.067 127.667 172.114 127.522 172.114 127.374C172.114 127.225 172.067 127.081 171.981 126.96C171.894 126.84 171.772 126.749 171.632 126.701L119.348 96.5183C118.987 96.3355 118.588 96.2402 118.184 96.2402C117.779 96.2402 117.38 96.3355 117.019 96.5183L64.7407 126.68C64.592 126.722 64.4612 126.812 64.368 126.935C64.2748 127.058 64.2244 127.208 64.2244 127.363C64.2244 127.517 64.2748 127.668 64.368 127.791C64.4612 127.914 64.592 128.004 64.7407 128.046Z" fill="#FFD2D2"/>
<path d="M126.925 147.55L164.055 126.11V36.5715L126.925 58.011V147.55Z" fill="#37474F"/>
<path d="M118.186 153.857V63.055L72.3175 36.5715V127.374L118.186 153.857Z" fill="#455A64"/>
<path d="M118.186 116.022L72.3175 89.5385V87.0165L67.9457 89.5385L118.186 118.544V116.022Z" fill="#FFD2D2"/>
<path opacity="0.5" d="M118.186 116.022L72.3175 89.5385V87.0165L67.9457 89.5385L118.186 118.544V116.022Z" fill="white"/>
<path d="M67.9457 89.5385L118.186 118.544V121.066L67.9457 92.0605V89.5385Z" fill="#FFD2D2"/>
<path d="M118.186 116.022L126.925 110.978L129.108 112.242L118.186 118.544V116.022Z" fill="#FFD2D2"/>
<path opacity="0.5" d="M118.186 116.022L126.925 110.978L129.108 112.242L118.186 118.544V116.022Z" fill="white"/>
<path d="M118.186 121.066L129.108 114.764V112.242L118.186 118.544V121.066Z" fill="#FFD2D2"/>
<path opacity="0.2" d="M118.186 121.066L129.108 114.764V112.242L118.186 118.544V121.066Z" fill="black"/>
<path d="M118.186 63.055L126.925 58.011V110.978L118.186 116.022V63.055Z" fill="#263238"/>
<path d="M118.186 121.066L126.925 116.022V148.813L118.186 153.857V121.066Z" fill="#263238"/>
<path d="M113.82 108.456V95.8462L105.082 90.8022V103.412L113.82 108.456Z" fill="#FFD2D2"/>
<path opacity="0.5" d="M113.82 108.456V95.8462L105.082 90.8022V103.412L113.82 108.456Z" fill="white"/>
<path d="M105.082 103.412L107.265 102.154V92.0605L105.082 90.8022V103.412Z" fill="#263238"/>
<path d="M113.82 105.934L107.265 102.154L105.082 103.412L113.82 108.456V105.934Z" fill="#263238"/>
<path d="M100.71 100.89V88.2802L89.7885 81.9726V94.5825L100.71 100.89Z" fill="#FFD2D2"/>
<path opacity="0.5" d="M100.71 100.89V88.2802L89.7885 81.9726V94.5825L100.71 100.89Z" fill="white"/>
<path d="M91.9717 93.3242L91.977 83.2363L89.7885 81.9726V94.5825L91.9717 93.3242Z" fill="#263238"/>
<path d="M100.71 98.3682V100.89L89.7885 94.5825L91.9717 93.3242L100.71 98.3682Z" fill="#263238"/>
<path d="M132.383 135.569V122.959L143.304 116.657V129.266L132.383 135.569Z" fill="#FFD2D2"/>
<path d="M141.121 128.003V117.915L143.304 116.657V129.266L141.121 128.003Z" fill="#263238"/>
<path d="M132.383 133.047V135.569L143.304 129.267L141.121 128.003L132.383 133.047Z" fill="#263238"/>
<path d="M132.383 114.554V101.944L143.304 95.6365V108.246L132.383 114.554Z" fill="#FFD2D2"/>
<path d="M141.121 106.988V96.8948L143.304 95.6365V108.246L141.121 106.988Z" fill="#263238"/>
<path d="M132.383 112.032V114.554L143.304 108.246L141.121 106.988L132.383 112.032Z" fill="#263238"/>
<path d="M132.383 93.5339V80.924L143.304 74.6163V87.2262L132.383 93.5339Z" fill="#FFD2D2"/>
<path d="M141.121 85.9679V75.88L143.304 74.6163V87.2262L141.121 85.9679Z" fill="#263238"/>
<path d="M132.383 91.0119V93.5339L143.304 87.2262L141.121 85.9679L132.383 91.0119Z" fill="#263238"/>
<path d="M132.383 72.5138V59.9039L143.304 53.5962V66.2115L132.383 72.5138Z" fill="#FFD2D2"/>
<path d="M141.121 64.9478V54.8599L143.304 53.5962V66.2115L141.121 64.9478Z" fill="#263238"/>
<path d="M132.383 69.9918V72.5138L143.304 66.2115L141.121 64.9478L132.383 69.9918Z" fill="#263238"/>
<path d="M147.912 126.605V113.995L158.839 107.692L158.834 120.302L147.912 126.605Z" fill="#FFD2D2"/>
<path d="M156.651 119.039V108.951L158.839 107.692L158.834 120.302L156.651 119.039Z" fill="#263238"/>
<path d="M147.912 124.088V126.605L158.834 120.302L156.651 119.039L147.912 124.088Z" fill="#263238"/>
<path d="M147.912 105.59V92.9746L158.839 86.6724L158.834 99.2823L147.912 105.59Z" fill="#FFD2D2"/>
<path d="M156.651 98.024V87.9307L158.839 86.6724L158.834 99.2823L156.651 98.024Z" fill="#263238"/>
<path d="M147.912 103.068V105.59L158.834 99.2823L156.651 98.024L147.912 103.068Z" fill="#263238"/>
<path d="M147.912 84.5698V71.9599L158.839 65.6523L158.834 78.2676L147.912 84.5698Z" fill="#FFD2D2"/>
<path d="M156.651 77.0039V66.9159L158.839 65.6523L158.834 78.2676L156.651 77.0039Z" fill="#263238"/>
<path d="M147.912 82.0479V84.5698L158.834 78.2676L156.651 77.0039L147.912 82.0479Z" fill="#263238"/>
<path d="M147.912 63.5497V50.9398L158.839 44.6375L158.834 57.2474L147.912 63.5497Z" fill="#FFD2D2"/>
<path d="M156.651 55.9838V45.8958L158.839 44.6375L158.834 57.2474L156.651 55.9838Z" fill="#263238"/>
<path d="M147.912 61.0277V63.5497L158.834 57.2474L156.651 55.9837L147.912 61.0277Z" fill="#263238"/>
<path d="M85.4221 92.0605V79.4506L76.6838 74.4066V87.0165L85.4221 92.0605Z" fill="#FFD2D2"/>
<path opacity="0.5" d="M85.4221 92.0605V79.4506L76.6838 74.4066V87.0165L85.4221 92.0605Z" fill="white"/>
<path d="M78.867 85.7582L76.6838 87.0165V74.4066L78.867 75.6703V85.7582Z" fill="#263238"/>
<path d="M85.4221 89.5385L78.867 85.7582L76.6838 87.0165L85.4221 92.0605V89.5385Z" fill="#263238"/>
<path d="M89.7885 116.146C89.7885 112.586 92.2352 111.107 95.2519 112.849C98.2686 114.592 100.71 118.888 100.71 122.453V143.769L89.7885 137.462V116.146Z" fill="#263238"/>
<path d="M100.71 122.453C100.71 118.888 98.2687 114.586 95.252 112.849C94.4839 112.363 93.5907 112.111 92.6816 112.123C92.1826 112.957 91.9377 113.917 91.9771 114.887V136.203L100.71 141.247V122.453Z" fill="#455A64"/>
<path d="M100.71 122.453C100.71 118.888 98.2687 114.586 95.252 112.849C94.4839 112.363 93.5907 112.111 92.6816 112.123C92.1826 112.957 91.9377 113.917 91.9771 114.887V136.203L100.71 141.247V122.453Z" fill="#FFD2D2"/>
<path opacity="0.5" d="M100.71 122.453C100.71 118.888 98.2687 114.586 95.252 112.849C94.4839 112.363 93.5907 112.111 92.6816 112.123C92.1826 112.957 91.9377 113.917 91.9771 114.887V136.203L100.71 141.247V122.453Z" fill="white"/>
<path d="M96.8274 114.038C96.4921 113.722 96.1325 113.432 95.7519 113.172V118.84L91.9878 116.657V117.963L95.7519 120.152V136.494L96.8274 137.112V120.765L100.71 123.007V122.469C100.71 122.211 100.71 121.932 100.672 121.69L96.8274 119.474V114.038Z" fill="#455A64"/>
<path d="M118.186 63.055V55.489L70.1289 27.7472V35.3132L118.186 63.055Z" fill="#FFD2D2"/>
<path opacity="0.5" d="M118.186 63.055V55.489L70.1289 27.7472V35.3132L118.186 63.055Z" fill="white"/>
<path d="M118.186 63.055V55.489L166.244 27.7472V35.3132L118.186 63.055Z" fill="#FFD2D2"/>
<path opacity="0.2" d="M118.186 63.055V55.489L166.244 27.7472V35.3132L118.186 63.055Z" fill="black"/>
<path d="M76.6838 49.5148C76.6838 46.5465 78.6412 45.2667 81.0503 46.6594C83.4593 48.0522 85.4221 51.5905 85.4221 54.5588V74.4066L76.6838 69.3627V49.5148Z" fill="#263238"/>
<path d="M81.0503 46.654C80.5306 46.3425 79.9447 46.1583 79.3403 46.1163C79.0077 46.7833 78.8451 47.5222 78.8671 48.2672V68.1151L85.4221 71.8792V54.5534C85.4221 51.5851 83.4647 48.0467 81.0503 46.654Z" fill="#FFD2D2"/>
<path opacity="0.5" d="M81.0503 46.654C80.5306 46.3425 79.9447 46.1583 79.3403 46.1163C79.0077 46.7833 78.8451 47.5222 78.8671 48.2672V68.1151L85.4221 71.8792V54.5534C85.4221 51.5851 83.4647 48.0467 81.0503 46.654Z" fill="white"/>
<path d="M76.6838 69.3626L78.867 68.099L85.4221 71.8792V74.4066L76.6838 69.3626Z" fill="#263238"/>
<path d="M89.7885 58.1562C89.7885 54.591 92.2352 53.1176 95.2519 54.8599C98.2686 56.6022 100.71 60.8987 100.71 64.4639V83.2363L89.7885 76.9286V58.1562Z" fill="#263238"/>
<path d="M100.71 64.4639C100.71 60.8987 98.2687 56.5968 95.252 54.8599C94.4839 54.3733 93.5907 54.121 92.6816 54.1339C92.1826 54.967 91.9377 55.9276 91.9771 56.8979V75.6649L100.71 80.7143V64.4639Z" fill="#FFD2D2"/>
<path opacity="0.5" d="M100.71 64.4639C100.71 60.8987 98.2687 56.5968 95.252 54.8599C94.4839 54.3733 93.5907 54.121 92.6816 54.1339C92.1826 54.967 91.9377 55.9276 91.9771 56.8979V75.6649L100.71 80.7143V64.4639Z" fill="white"/>
<path d="M91.977 75.6649L89.7885 76.9286L100.71 83.2363V80.7143L91.977 75.6649Z" fill="#263238"/>
<path d="M105.082 65.9157C105.082 62.9474 107.034 61.6676 109.448 63.0604C111.863 64.4531 113.82 67.9914 113.82 70.9597V90.8076L105.082 85.7636V65.9157Z" fill="#263238"/>
<path d="M109.448 63.055C108.928 62.7442 108.342 62.5601 107.738 62.5172C107.405 63.184 107.242 63.9231 107.265 64.6682V84.516L113.82 88.2802V70.9543C113.82 67.986 111.863 64.4477 109.448 63.055Z" fill="#FFD2D2"/>
<path opacity="0.5" d="M109.448 63.055C108.928 62.7442 108.342 62.5601 107.738 62.5172C107.405 63.184 107.242 63.9231 107.265 64.6682V84.516L113.82 88.2802V70.9543C113.82 67.986 111.863 64.4477 109.448 63.055Z" fill="white"/>
<path d="M107.265 84.4945L105.082 85.7582L113.82 90.8022V88.2802L107.265 84.4945Z" fill="#263238"/>
<path d="M105.082 123.9C105.082 120.932 107.034 119.652 109.448 121.044C111.863 122.437 113.82 125.976 113.82 128.944V151.335L105.082 146.291V123.9Z" fill="#263238"/>
<path d="M109.448 121.045C108.928 120.734 108.342 120.55 107.738 120.507C107.406 121.174 107.243 121.913 107.265 122.658V145.044L113.82 148.808V128.912C113.82 125.976 111.863 122.437 109.448 121.045Z" fill="#FFD2D2"/>
<path opacity="0.5" d="M109.448 121.045C108.928 120.734 108.342 120.55 107.738 120.507C107.406 121.174 107.243 121.913 107.265 122.658V145.044L113.82 148.808V128.912C113.82 125.976 111.863 122.437 109.448 121.045Z" fill="white"/>
<path d="M105.082 146.291V138.725L113.82 143.769V151.335L105.082 146.291Z" fill="#37474F"/>
<path d="M105.082 138.725L107.265 137.462L113.815 141.247L113.82 143.769L105.082 138.725Z" fill="#263238"/>
<path d="M76.6838 107.504C76.6838 104.536 78.6412 103.256 81.0503 104.649C83.4593 106.042 85.4221 109.58 85.4221 112.548V134.94L76.6838 129.906V107.504Z" fill="#263238"/>
<path d="M81.0503 104.633C80.5295 104.324 79.9442 104.14 79.3403 104.095C79.0077 104.762 78.8451 105.501 78.8671 106.246V128.637L85.4221 132.401V112.505C85.4221 109.575 83.4647 106.036 81.0503 104.633Z" fill="#FFD2D2"/>
<path opacity="0.5" d="M81.0503 104.633C80.5295 104.324 79.9442 104.14 79.3403 104.095C79.0077 104.762 78.8451 105.501 78.8671 106.246V128.637L85.4221 132.401V112.505C85.4221 109.575 83.4647 106.036 81.0503 104.633Z" fill="white"/>
<path d="M85.4221 134.94V127.374L76.6838 122.33V129.896L85.4221 134.94Z" fill="#37474F"/>
<path d="M76.6838 122.33L78.867 121.066L85.4221 124.852V127.374L76.6838 122.33Z" fill="#263238"/>
<path d="M89.7885 137.462V134.94L100.71 141.247V143.769L89.7885 137.462Z" fill="#37474F"/>
<path d="M89.7885 134.94L91.977 133.681L100.71 138.725V141.247L89.7885 134.94Z" fill="#263238"/>
<path d="M118.186 55.489L166.244 27.7472L118.186 0L70.1289 27.7472L118.186 55.489Z" fill="#FFD2D2"/>
<path opacity="0.7" d="M118.186 55.489L166.244 27.7472L118.186 0L70.1289 27.7472L118.186 55.489Z" fill="white"/>
<path d="M118.186 50.4451L157.506 27.7472L118.186 5.04396L78.8671 27.7472L118.186 50.4451Z" fill="#FFD2D2"/>
<path d="M118.186 5.04396V12.6153L85.4221 31.5275L78.8671 27.7472L118.186 5.04396Z" fill="#FFD2D2"/>
<path opacity="0.2" d="M118.186 5.04396V12.6153L85.4221 31.5275L78.8671 27.7472L118.186 5.04396Z" fill="black"/>
<path d="M118.186 5.04396L157.506 27.7472L150.951 31.5275L118.186 12.6153V5.04396Z" fill="#FFD2D2"/>
<path opacity="0.5" d="M118.186 5.04396L157.506 27.7472L150.951 31.5275L118.186 12.6153V5.04396Z" fill="white"/>
<path d="M111.631 11.3516L100.71 17.6593L116.003 26.4835L126.925 20.1813L111.631 11.3516Z" fill="#455A64"/>
<path d="M100.71 17.6593V25.2252L116.003 34.0495V26.4835L100.71 17.6593Z" fill="#37474F"/>
<path d="M126.925 20.1812V27.7472L116.003 34.0495V26.4835L126.925 20.1812Z" fill="#263238"/>
<path d="M108.045 15.5836C106.06 16.729 106.06 18.5842 108.045 19.7296C109.157 20.2945 110.387 20.5889 111.634 20.5889C112.881 20.5889 114.111 20.2945 115.223 19.7296C117.202 18.5842 117.202 16.729 115.223 15.5836C114.111 15.0187 112.881 14.7243 111.634 14.7243C110.387 14.7243 109.157 15.0187 108.045 15.5836Z" fill="#37474F"/>
<path d="M109.954 16.7666C109.023 17.256 109.023 18.0572 109.954 18.5465C110.48 18.791 111.054 18.9177 111.634 18.9177C112.214 18.9177 112.788 18.791 113.314 18.5465C114.239 18.0572 114.239 17.256 113.314 16.7666C112.788 16.5222 112.214 16.3955 111.634 16.3955C111.054 16.3955 110.48 16.5222 109.954 16.7666Z" fill="#263238"/>
<path d="M119.38 27.0535L121.563 28.3118V33.3612" stroke="#455A64" stroke-width="2" stroke-linecap="round" stroke-linejoin="round"/>
<path d="M122.553 25.2252L124.736 26.4835V31.5275" stroke="#455A64" stroke-width="2" stroke-linecap="round" stroke-linejoin="round"/>
<path d="M55.0132 101.234V118.614C55.0236 118.738 55.067 118.856 55.1389 118.957C55.2108 119.059 55.3085 119.139 55.4219 119.189C55.7321 119.346 56.0746 119.427 56.4221 119.427C56.7695 119.427 57.112 119.346 57.4222 119.189C57.5356 119.139 57.6333 119.059 57.7052 118.957C57.7771 118.856 57.8205 118.738 57.8309 118.614V101.245L55.0132 101.234Z" fill="#37474F"/>
<path d="M63.2082 106.289C63.2082 108.089 62.4932 109.815 61.2206 111.088C59.9479 112.36 58.2218 113.075 56.422 113.075C54.6222 113.075 52.8961 112.36 51.6234 111.088C50.3507 109.815 49.6357 108.089 49.6357 106.289C49.6357 99.3522 52.674 91.7701 56.422 91.7701C60.17 91.7701 63.2082 99.2554 63.2082 106.289Z" fill="#FFD2D2"/>
<path d="M63.2082 106.289C63.2082 106.111 63.2082 105.934 63.2082 105.751V105.574C63.1557 106.313 62.8673 107.016 62.3855 107.58C61.1003 109.193 58.2664 110.946 55.3411 109.73C50.4262 107.671 50.2918 101.858 51.3834 97.0453C50.2372 99.9943 49.6482 103.13 49.6465 106.294C49.6465 108.094 50.3615 109.82 51.6341 111.093C52.9068 112.366 54.6329 113.081 56.4327 113.081C58.2325 113.081 59.9586 112.366 61.2313 111.093C62.504 109.82 63.219 108.094 63.219 106.294L63.2082 106.289Z" fill="#FFD2D2"/>
<path opacity="0.1" d="M63.2082 106.289C63.2082 106.111 63.2082 105.934 63.2082 105.751V105.574C63.1557 106.313 62.8673 107.016 62.3855 107.58C61.1003 109.193 58.2664 110.946 55.3411 109.73C50.4262 107.671 50.2918 101.858 51.3834 97.0453C50.2372 99.9943 49.6482 103.13 49.6465 106.294C49.6465 108.094 50.3615 109.82 51.6341 111.093C52.9068 112.366 54.6329 113.081 56.4327 113.081C58.2325 113.081 59.9586 112.366 61.2313 111.093C62.504 109.82 63.219 108.094 63.219 106.294L63.2082 106.289Z" fill="black"/>
<path d="M5.37463 70.7553V88.1296C5.38578 88.2566 5.43118 88.3782 5.50599 88.4814C5.5808 88.5846 5.68223 88.6656 5.79945 88.7157C6.1087 88.8721 6.45039 88.9536 6.79695 88.9536C7.1435 88.9536 7.4852 88.8721 7.79445 88.7157C7.90816 88.665 8.00639 88.585 8.07913 88.4839C8.15186 88.3828 8.1965 88.2643 8.20851 88.1403V70.7553H5.37463Z" fill="#37474F"/>
<path d="M13.5698 75.8262C13.5953 76.7331 13.4387 77.6359 13.1093 78.4813C12.7799 79.3266 12.2843 80.0973 11.6519 80.7478C11.0195 81.3983 10.263 81.9154 9.42727 82.2685C8.59154 82.6215 7.69349 82.8035 6.78623 82.8035C5.87898 82.8035 4.98093 82.6215 4.1452 82.2685C3.30946 81.9154 2.55301 81.3983 1.92058 80.7478C1.28814 80.0973 0.792563 79.3266 0.463143 78.4813C0.133724 77.6359 -0.0228474 76.7331 0.00268885 75.8262C0.00268885 68.8894 3.0409 61.3073 6.78355 61.3073C10.5262 61.3073 13.5698 68.7765 13.5698 75.8262Z" fill="#FFD2D2"/>
<path d="M230.998 70.7553V88.1296C230.986 88.2535 230.942 88.3721 230.869 88.4732C230.796 88.5742 230.698 88.6542 230.584 88.705C230.275 88.8614 229.933 88.9429 229.587 88.9429C229.24 88.9429 228.898 88.8614 228.589 88.705C228.475 88.6542 228.377 88.5742 228.304 88.4732C228.232 88.3721 228.187 88.2535 228.175 88.1296V70.7553H230.998Z" fill="#37474F"/>
<path d="M222.803 75.8262C222.777 76.7331 222.934 77.6359 223.263 78.4813C223.593 79.3266 224.088 80.0973 224.721 80.7478C225.353 81.3983 226.11 81.9154 226.945 82.2684C227.781 82.6215 228.679 82.8034 229.587 82.8034C230.494 82.8034 231.392 82.6215 232.228 82.2684C233.063 81.9154 233.82 81.3983 234.452 80.7478C235.085 80.0973 235.58 79.3266 235.91 78.4813C236.239 77.6359 236.396 76.7331 236.37 75.8262C236.37 68.8894 233.332 61.3073 229.589 61.3073C225.847 61.3073 222.803 68.7765 222.803 75.8262Z" fill="#FFD2D2"/>
<path d="M193.47 119.958H198.186V114.758C198.186 114.449 198.124 114.142 198.006 113.856C197.887 113.57 197.713 113.31 197.494 113.091C197.275 112.872 197.014 112.699 196.728 112.581C196.441 112.463 196.135 112.402 195.825 112.403C195.2 112.403 194.601 112.651 194.159 113.093C193.718 113.535 193.47 114.134 193.47 114.758V119.958Z" fill="#FFD2D2"/>
<g opacity="0.5">
<path d="M193.47 119.958H198.186V114.758C198.186 114.449 198.124 114.142 198.006 113.856C197.887 113.57 197.713 113.31 197.494 113.091C197.275 112.872 197.014 112.699 196.728 112.581C196.441 112.463 196.135 112.402 195.825 112.403C195.2 112.403 194.601 112.651 194.159 113.093C193.718 113.535 193.47 114.134 193.47 114.758V119.958Z" fill="black"/>
</g>
<path d="M194.099 121.69C194.416 120.109 195.013 118.367 194.981 117.581L194.518 117.608C194.244 117.627 193.983 117.738 193.78 117.924C193.577 118.109 193.443 118.358 193.4 118.63C193.233 119.657 192.98 121.227 192.862 121.856C192.756 122.66 192.576 123.452 192.324 124.222C192.281 124.334 192.199 124.425 192.093 124.481C191.864 124.616 191.657 124.787 191.48 124.986C191.308 125.137 191.173 125.169 191.19 125.223C191.216 125.282 191.264 125.33 191.323 125.356C191.383 125.382 191.451 125.384 191.512 125.362C191.65 125.32 191.782 125.26 191.905 125.185C191.795 125.422 191.646 125.638 191.464 125.825C191.055 126.255 191.017 126.535 191.776 126.599C192.249 126.637 192.647 126.373 193.082 125.362C193.249 124.991 193.389 124.608 193.502 124.217C193.792 123.212 193.975 122.314 194.099 121.69Z" fill="#FFA8A7"/>
<path d="M201.078 135.284C201.256 135.187 201.374 135.418 201.536 135.601C201.675 135.736 201.785 135.899 201.858 136.08C201.853 136.225 201.816 136.367 201.751 136.497C201.686 136.626 201.594 136.741 201.482 136.832C201.213 136.998 201.019 137.262 200.944 137.569C200.924 137.758 200.85 137.938 200.732 138.087C200.614 138.237 200.457 138.35 200.277 138.413C200.069 138.501 199.845 138.545 199.619 138.545C199.392 138.545 199.168 138.501 198.96 138.413C198.707 138.252 198.96 138.069 199.293 137.564C199.756 136.902 200.116 136.429 200.116 135.811L201.078 135.284Z" fill="#263238"/>
<path d="M200.708 134.714L201.084 135.251C201.164 135.367 201.197 135.509 201.173 135.648C201.15 135.786 201.074 135.911 200.96 135.994C200.845 136.063 200.71 136.09 200.577 136.07C200.444 136.049 200.323 135.982 200.234 135.881L199.643 135.23L200.708 134.714Z" fill="#FFA8A7"/>
<path d="M193.47 124.615C193.525 126.04 193.793 127.448 194.265 128.793C194.55 129.566 194.91 130.308 195.341 131.009C195.497 131.278 199.944 135.606 199.944 135.606C200.156 135.589 200.357 135.502 200.516 135.359C200.674 135.216 200.781 135.025 200.82 134.816C200.82 134.816 198.998 131.719 198.6 131.084C198.08 130.467 197.477 129.924 196.809 129.471L196.938 123.911L193.47 124.615Z" fill="#37474F"/>
<path d="M195.022 137.596L194.083 137.383L193.772 138.751L194.711 138.965L195.022 137.596Z" fill="#FFA8A7"/>
<path d="M194.265 123.841L198.266 123.997C198.538 124.588 198.655 125.24 198.605 125.889C198.47 127.841 196.621 131.331 196.621 131.331C196.707 132.121 196.667 132.92 196.502 133.697C196.082 135.121 195.586 136.521 195.018 137.892C194.837 137.919 194.651 137.907 194.475 137.856C194.298 137.805 194.135 137.716 193.997 137.596C193.997 137.596 194.599 132.245 194.76 130.874C194.938 129.39 195.389 126.68 195.389 126.68C195.09 126.384 194.82 126.06 194.583 125.712C194.163 125.181 193.948 124.517 193.975 123.841" fill="#37474F"/>
<path d="M199.793 122.787C199.658 121.408 199.435 120.04 199.127 118.689C199.09 118.467 198.981 118.262 198.817 118.108C198.653 117.953 198.442 117.857 198.218 117.834C196.911 118.539 196.922 119.474 198.035 120.604C198.035 120.604 198.497 122.421 198.643 123.292C198.795 124.088 198.867 124.897 198.858 125.707C198.851 125.825 198.799 125.937 198.712 126.019C198.534 126.216 198.385 126.439 198.272 126.68C198.153 126.874 198.03 126.943 198.062 126.992C198.104 127.042 198.163 127.074 198.228 127.082C198.293 127.09 198.358 127.073 198.411 127.035C198.531 126.954 198.639 126.858 198.734 126.75C198.697 127.006 198.619 127.255 198.503 127.487C198.234 128.024 198.277 128.299 199.041 128.143C199.503 128.046 199.809 127.675 199.933 126.578C199.988 126.173 200.013 125.765 200.008 125.357C199.922 124.33 199.858 123.421 199.793 122.787Z" fill="#FFA8A7"/>
<path d="M193.873 138.29L193.9 138.155C193.803 138.155 193.362 138.876 192.959 139.182C192.555 139.489 192.104 139.72 191.883 139.86C191.663 140 192.007 140.473 192.679 140.511C193.075 140.533 193.469 140.442 193.814 140.247C194.002 140.07 194.136 139.774 194.287 139.645C194.437 139.516 194.739 139.408 194.825 139.241C194.88 139.079 194.899 138.906 194.878 138.736C194.878 138.559 194.878 138.365 194.809 138.37V138.473C194.63 138.561 194.432 138.604 194.233 138.596C194.088 138.591 193.792 138.553 193.873 138.29Z" fill="#263238"/>
<path d="M194.878 129.966C194.878 129.966 195.282 127.121 195.389 126.68C195.068 126.504 194.768 126.291 194.497 126.045C194.683 126.311 194.886 126.564 195.104 126.804L194.878 129.966Z" fill="#263238"/>
<path d="M197.293 129.869C197.1 130.37 196.875 130.858 196.621 131.331C196.621 131.331 196.669 132.246 196.664 132.407L196.916 132.627C196.923 132.214 196.885 131.801 196.804 131.396C197.022 130.906 197.186 130.394 197.293 129.869Z" fill="#263238"/>
<path d="M196.809 117.603C197.282 117.656 197.752 117.734 198.218 117.834C196.916 118.748 198.035 120.604 198.035 120.604L197.341 122.523C197.807 123.134 198.186 123.808 198.465 124.524C198.099 124.943 195.927 126.212 193.448 124.615C193.448 124.615 193.593 123.217 193.798 122.163C193.443 120.453 193.34 119.851 193.448 119.447C193.738 118.318 194.405 117.598 195.169 117.555L196.809 117.603Z" fill="#F5F5F5"/>
<path d="M194.265 113.355C194.018 113.5 193.728 114.129 193.728 115.441C193.755 116.554 194.115 116.829 194.298 116.909C194.584 116.969 194.881 116.96 195.163 116.882V117.538C195.163 117.538 194.696 118.076 194.728 118.393C194.76 118.711 195.405 118.77 195.841 118.474C196.16 118.226 196.434 117.926 196.653 117.587V116.054C196.653 116.054 196.857 116.248 197.191 115.952C197.327 115.855 197.419 115.708 197.449 115.543C197.478 115.378 197.441 115.208 197.347 115.07C197.29 115.017 197.221 114.978 197.146 114.957C197.072 114.936 196.993 114.933 196.917 114.948C196.841 114.963 196.769 114.997 196.708 115.045C196.647 115.093 196.599 115.155 196.567 115.226C196.123 115.208 195.69 115.079 195.309 114.85C195.03 114.7 194.79 114.487 194.608 114.227C194.427 113.967 194.31 113.668 194.265 113.355Z" fill="#FFA8A7"/>
<path d="M194.981 115.162C194.981 115.199 194.995 115.234 195.022 115.26C195.048 115.287 195.083 115.301 195.12 115.301C195.158 115.301 195.193 115.287 195.219 115.26C195.246 115.234 195.26 115.199 195.26 115.162C195.262 115.143 195.259 115.123 195.253 115.105C195.247 115.087 195.238 115.07 195.225 115.056C195.213 115.041 195.198 115.029 195.181 115.021C195.164 115.012 195.145 115.007 195.126 115.006C195.106 115.006 195.086 115.01 195.068 115.018C195.049 115.026 195.033 115.037 195.019 115.052C195.006 115.067 194.995 115.084 194.988 115.103C194.982 115.122 194.979 115.142 194.981 115.162Z" fill="#263238"/>
<path d="M194.943 116.108L194.62 116.21C194.626 116.232 194.636 116.252 194.65 116.27C194.663 116.288 194.68 116.303 194.7 116.314C194.72 116.325 194.741 116.332 194.764 116.335C194.786 116.337 194.809 116.335 194.83 116.329C194.874 116.314 194.91 116.282 194.931 116.241C194.952 116.2 194.957 116.152 194.943 116.108Z" fill="#F28F8F"/>
<path d="M193.835 114.731L194.115 114.538C194.103 114.519 194.088 114.502 194.07 114.49C194.052 114.477 194.031 114.468 194.01 114.463C193.988 114.459 193.966 114.459 193.944 114.463C193.922 114.468 193.902 114.477 193.884 114.489C193.864 114.502 193.848 114.518 193.835 114.537C193.822 114.556 193.813 114.578 193.808 114.6C193.804 114.623 193.804 114.646 193.808 114.669C193.813 114.691 193.822 114.713 193.835 114.731Z" fill="#263238"/>
<path d="M193.9 115.059C193.898 115.079 193.901 115.098 193.907 115.116C193.913 115.134 193.922 115.151 193.935 115.165C193.947 115.18 193.962 115.192 193.979 115.2C193.996 115.209 194.015 115.214 194.034 115.215C194.072 115.215 194.108 115.201 194.135 115.175C194.162 115.149 194.178 115.113 194.179 115.076C194.179 115.057 194.176 115.039 194.169 115.022C194.162 115.005 194.151 114.99 194.138 114.977C194.125 114.964 194.11 114.953 194.093 114.946C194.076 114.939 194.058 114.936 194.04 114.936C194.021 114.936 194.003 114.939 193.986 114.946C193.969 114.953 193.954 114.964 193.941 114.977C193.928 114.99 193.917 115.005 193.91 115.022C193.903 115.039 193.9 115.057 193.9 115.076V115.059Z" fill="#263238"/>
<path d="M194.561 114.979L194.54 115.823L194.093 115.689L194.561 114.979Z" fill="#F28F8F"/>
<path d="M195.174 116.882C195.534 116.839 196.25 116.624 196.384 116.345C196.338 116.492 196.248 116.622 196.126 116.716C195.828 116.891 195.508 117.027 195.174 117.119V116.882Z" fill="#F28F8F"/>
<path d="M197.712 121.502L196.734 122.83L197.336 122.523L197.712 121.502Z" fill="#E0E0E0"/>
<path d="M150.757 144.56C150.998 143.223 151.067 141.86 150.961 140.505C150.959 140.473 150.946 140.443 150.925 140.419C150.904 140.395 150.876 140.378 150.845 140.371C150.814 140.363 150.781 140.366 150.752 140.379C150.723 140.392 150.698 140.413 150.682 140.441L149.644 142.366C149.644 142.366 149.52 143.775 149.391 144.737C149.297 145.615 149.117 146.481 148.854 147.324C148.807 147.443 148.719 147.543 148.606 147.603C148.357 147.748 148.13 147.93 147.934 148.141C147.751 148.308 147.601 148.34 147.622 148.399C147.65 148.465 147.701 148.517 147.766 148.546C147.831 148.575 147.904 148.578 147.972 148.555C148.121 148.509 148.264 148.444 148.396 148.362C148.278 148.617 148.118 148.852 147.923 149.055C147.477 149.523 147.439 149.824 148.257 149.894C148.768 149.937 149.203 149.652 149.676 148.55C149.858 148.147 150.011 147.732 150.133 147.308C150.451 146.211 150.623 145.232 150.757 144.56Z" fill="#B16668"/>
<path d="M155.613 159.831C155.613 159.831 155.677 159.831 155.876 159.955C156.102 160.096 156.299 160.278 156.457 160.493C156.479 160.649 156.467 160.808 156.422 160.959C156.378 161.11 156.302 161.25 156.199 161.369C155.997 161.674 155.89 162.031 155.892 162.396C155.875 162.632 155.809 162.861 155.698 163.07C155.587 163.278 155.433 163.461 155.247 163.606C154.914 163.838 154.505 164.074 154.317 164.015C154.129 163.956 154.118 163.725 154.355 162.703C154.552 162.029 154.692 161.341 154.774 160.643L155.613 159.831Z" fill="#263238"/>
<path d="M155.468 159.638L155.688 159.934C155.723 159.979 155.747 160.031 155.759 160.087C155.771 160.143 155.771 160.201 155.758 160.256C155.725 160.456 155.622 160.637 155.468 160.767C155.38 160.833 155.271 160.865 155.161 160.859C155.085 160.853 155.012 160.831 154.945 160.795C154.878 160.759 154.82 160.709 154.774 160.649L154.602 160.418L155.468 159.638Z" fill="#B16668"/>
<path d="M150.117 146.888L152.602 149.373H152.532L151.962 153.868C152.412 154.173 152.797 154.566 153.091 155.024C153.564 155.755 155.446 159.638 155.446 159.638C155.446 159.638 155.226 160.504 154.58 160.418C154.58 160.418 153.58 159.17 152.505 157.804C151.327 156.304 150.026 154.68 149.956 154.384C149.596 152.771 150.117 146.888 150.117 146.888Z" fill="#455A64"/>
<path d="M153.139 155.024C153.613 155.755 155.495 159.638 155.495 159.638C155.495 159.638 155.274 160.504 154.629 160.418C154.629 160.418 153.629 159.17 152.553 157.804L153.139 155.024Z" fill="#37474F"/>
<path d="M152.94 162.407C152.662 162.135 152.349 161.9 152.01 161.708C151.845 161.697 151.68 161.697 151.515 161.708C151.367 161.708 151.219 161.692 151.074 161.66C150.778 161.552 150.49 161.421 150.214 161.267C150.097 161.196 149.97 161.142 149.838 161.106C149.606 161.063 149.424 161.058 149.343 161.316C149.318 161.394 149.309 161.476 149.316 161.558C149.313 161.797 149.367 162.033 149.474 162.247C149.58 162.462 149.736 162.647 149.929 162.789C150.107 162.907 150.343 162.999 150.531 163.106C150.818 163.225 151.093 163.369 151.354 163.537C151.741 163.87 152.101 164.198 152.645 163.983C152.753 163.952 152.851 163.895 152.931 163.816C153.011 163.737 153.07 163.639 153.102 163.531C153.177 163.246 152.908 162.708 152.94 162.407Z" fill="#263238"/>
<path d="M150.144 146.501L155.468 147.039C155.613 148.575 155.48 150.125 155.075 151.615C154.645 153.545 154.166 155.573 154.166 155.573C154.396 156.319 154.413 157.114 154.215 157.869C153.801 159.218 153.032 162.805 153.032 162.805C152.787 162.289 152.357 161.884 151.827 161.671C151.827 161.671 152.021 159.783 152.139 158.417C152.257 157.051 152.327 155.911 152.37 155.067C152.44 153.723 152.634 149.351 152.634 149.351H152.564C152.564 149.351 150.472 148.362 150.128 146.867L150.144 146.501Z" fill="#455A64"/>
<path d="M152.602 149.373C152 149.093 151.441 148.731 150.94 148.297L152.236 149.507L151.999 153.556L152.602 149.373Z" fill="#37474F"/>
<path d="M152.096 139.914C151.306 139.914 150.359 140.166 149.983 140.892C149.647 141.814 149.421 142.773 149.311 143.748C149.311 143.748 149.606 144.388 150.714 144.312L152.096 139.914Z" fill="#263238"/>
<path d="M157.231 145.748C157.011 143.474 156.188 141.812 156.091 141.242L155.425 144.054C155.646 144.797 155.825 145.551 155.962 146.313C156.126 147.18 156.205 148.06 156.199 148.942C156.189 149.07 156.134 149.19 156.043 149.281C155.846 149.493 155.682 149.734 155.559 149.996C155.43 150.211 155.296 150.281 155.333 150.335C155.378 150.389 155.442 150.424 155.512 150.433C155.582 150.442 155.652 150.424 155.71 150.383C155.84 150.296 155.959 150.193 156.065 150.077C156.028 150.355 155.948 150.625 155.828 150.878C155.538 151.454 155.586 151.76 156.366 151.588C156.871 151.48 157.205 151.083 157.339 149.889C157.396 149.45 157.423 149.008 157.42 148.566C157.387 147.421 157.296 146.431 157.231 145.748Z" fill="#B16668"/>
<path d="M153.715 139.962C154.65 140.188 155.93 140.5 156.301 141.5C156.609 142.468 156.866 143.452 157.07 144.447C156.866 144.644 156.617 144.79 156.345 144.871C156.072 144.953 155.785 144.968 155.505 144.915L155.29 144.156L155.468 147.055C154.736 147.856 151.704 148.06 150.117 146.888C150.117 146.888 150.391 142.586 150.391 141.785C150.376 141.549 150.409 141.313 150.487 141.09C150.565 140.867 150.687 140.662 150.846 140.487C151.005 140.313 151.198 140.172 151.413 140.073C151.627 139.975 151.86 139.92 152.096 139.914L153.715 139.962Z" fill="#37474F"/>
<path d="M155.29 144.156L154.817 142.672L155.333 144.893L155.29 144.156Z" fill="#263238"/>
<path d="M154.064 135.789C154.148 135.78 154.234 135.79 154.314 135.818C154.394 135.846 154.466 135.891 154.527 135.951C154.726 136.155 154.683 136.531 154.527 137.392L153.914 137.462L154.064 135.789Z" fill="#263238"/>
<path d="M150.494 135.542C150.36 135.542 150.228 135.515 150.106 135.461C149.918 135.354 149.87 135.569 149.972 135.752C150.04 135.885 150.142 135.999 150.267 136.082C150.393 136.165 150.537 136.214 150.687 136.225L150.859 135.746L150.494 135.542Z" fill="#263238"/>
<path d="M153.779 137.462C153.871 137.515 154 137.343 154.113 137.225C154.156 137.174 154.213 137.135 154.276 137.112C154.339 137.089 154.407 137.082 154.473 137.093C154.54 137.104 154.602 137.132 154.655 137.174C154.708 137.216 154.749 137.27 154.774 137.333C154.957 137.725 154.532 138.247 154.285 138.408C154.216 138.468 154.13 138.504 154.039 138.512C153.948 138.52 153.857 138.498 153.779 138.451L153.715 139.951C153.603 140.191 153.435 140.4 153.224 140.559C153.013 140.719 152.766 140.824 152.505 140.865C151.623 140.989 151.806 140.263 152.096 139.903V139.365C151.877 139.413 151.652 139.424 151.429 139.397C151.174 139.213 150.976 138.959 150.859 138.666C150.483 137.922 150.4 137.064 150.628 136.262C150.94 134.918 152.386 134.875 153.247 135.418C154.107 135.961 153.779 137.462 153.779 137.462Z" fill="#B16668"/>
<path d="M153.779 137.618C153.822 137.618 153.994 137.327 154.113 137.225C154.231 137.123 154.064 135.789 154.064 135.789C154.108 135.651 154.117 135.504 154.091 135.362C154.065 135.219 154.004 135.085 153.914 134.972C153.602 134.649 153.005 134.703 152.564 134.687C152.025 134.691 151.49 134.585 150.994 134.375C150.37 134.101 150.322 134.068 150.246 134.343C150.185 134.569 150.177 134.806 150.223 135.035C150.269 135.265 150.367 135.48 150.51 135.666L150.714 135.999C150.947 136.138 151.212 136.215 151.483 136.225C152.059 136.221 152.631 136.134 153.182 135.967C153.349 135.967 153.387 136.107 153.478 136.558C153.569 137.01 153.623 137.612 153.779 137.618Z" fill="#263238"/>
<path d="M154.064 135.891L154.602 135.596C154.585 135.559 154.56 135.525 154.53 135.498C154.499 135.471 154.464 135.45 154.425 135.437C154.386 135.424 154.345 135.419 154.304 135.422C154.264 135.425 154.224 135.437 154.188 135.456C154.115 135.499 154.062 135.568 154.039 135.649C154.016 135.73 154.025 135.817 154.064 135.891Z" fill="#263238"/>
<path d="M152.096 139.371C152.472 139.298 152.841 139.192 153.198 139.053C153.365 138.967 153.502 138.832 153.591 138.666C153.548 138.832 153.473 138.987 153.371 139.123C153.161 139.392 152.096 139.586 152.096 139.586V139.371Z" fill="#9A4A4D"/>
<path d="M152.064 137.435C152.064 137.479 152.081 137.521 152.113 137.553C152.144 137.584 152.186 137.601 152.231 137.601C152.27 137.594 152.306 137.573 152.332 137.542C152.358 137.511 152.372 137.472 152.372 137.432C152.372 137.392 152.358 137.353 152.332 137.322C152.306 137.291 152.27 137.27 152.231 137.263C152.208 137.263 152.186 137.267 152.165 137.276C152.145 137.285 152.126 137.297 152.111 137.313C152.095 137.329 152.083 137.348 152.075 137.369C152.067 137.39 152.063 137.412 152.064 137.435Z" fill="#263238"/>
<path d="M152.247 136.816L152.596 137.01C152.62 136.961 152.624 136.905 152.608 136.853C152.592 136.801 152.557 136.757 152.51 136.73C152.487 136.718 152.462 136.71 152.436 136.707C152.411 136.705 152.384 136.707 152.36 136.715C152.335 136.724 152.312 136.737 152.293 136.754C152.273 136.771 152.258 136.793 152.247 136.816Z" fill="#263238"/>
<path d="M152.171 138.51L151.795 138.65C151.813 138.7 151.85 138.741 151.899 138.765C151.947 138.788 152.002 138.791 152.053 138.774C152.103 138.753 152.143 138.715 152.165 138.666C152.187 138.617 152.189 138.561 152.171 138.51Z" fill="#9A4A4D"/>
<path d="M150.612 136.951L150.935 136.709C150.92 136.687 150.9 136.668 150.878 136.654C150.855 136.64 150.83 136.631 150.804 136.627C150.778 136.623 150.751 136.624 150.725 136.631C150.7 136.637 150.676 136.649 150.655 136.666C150.613 136.699 150.585 136.747 150.577 136.8C150.569 136.853 150.581 136.907 150.612 136.951Z" fill="#263238"/>
<path d="M150.714 137.386C150.714 137.429 150.731 137.47 150.761 137.5C150.792 137.531 150.833 137.548 150.875 137.548C150.918 137.548 150.959 137.531 150.989 137.5C151.02 137.47 151.037 137.429 151.037 137.386C151.037 137.364 151.034 137.343 151.026 137.322C151.018 137.302 151.007 137.283 150.992 137.267C150.977 137.251 150.959 137.238 150.939 137.229C150.919 137.22 150.897 137.215 150.875 137.214C150.854 137.215 150.832 137.22 150.812 137.229C150.792 137.238 150.774 137.251 150.759 137.267C150.744 137.283 150.732 137.302 150.725 137.322C150.717 137.343 150.713 137.364 150.714 137.386Z" fill="#263238"/>
<path d="M151.483 137.365L151.634 138.338L151.096 138.274L151.483 137.365Z" fill="#9A4A4D"/>
<path d="M74.5168 135.601C73.8379 135.601 73.1869 135.331 72.7069 134.851C72.2268 134.371 71.9572 133.72 71.9572 133.041V132.934C71.9572 132.363 72.1838 131.816 72.5871 131.413C72.9905 131.01 73.5376 130.783 74.1081 130.783H74.8878C75.4583 130.783 76.0054 131.01 76.4088 131.413C76.8121 131.816 77.0388 132.363 77.0388 132.934V133.041C77.0388 133.714 76.7743 134.359 76.3024 134.838C75.8305 135.317 75.1891 135.591 74.5168 135.601Z" fill="#263238"/>
<path d="M76.415 140.849C76.0762 139.134 75.4256 137.241 75.4578 136.386L75.9579 136.418C76.2567 136.438 76.5402 136.558 76.7619 136.759C76.9836 136.96 77.1305 137.231 77.1786 137.526C77.356 138.645 77.6303 140.349 77.7163 141.048C77.8284 141.921 78.021 142.782 78.2917 143.619C78.3379 143.739 78.4283 143.837 78.5444 143.893C78.7899 144.041 79.0142 144.222 79.2112 144.431C79.3941 144.597 79.5446 144.63 79.5231 144.689C79.4956 144.754 79.4441 144.807 79.3792 144.836C79.3143 144.865 79.2408 144.868 79.1736 144.845C79.0251 144.797 78.8826 144.732 78.7488 144.651C78.8669 144.907 79.0268 145.142 79.222 145.345C79.6683 145.813 79.7059 146.114 78.8886 146.184C78.3508 146.227 77.9422 145.942 77.469 144.839C77.2875 144.437 77.1347 144.022 77.0119 143.597C76.7484 142.5 76.5494 141.527 76.415 140.849Z" fill="#B16668"/>
<path d="M75.2482 136.359C75.7218 136.314 76.1993 136.39 76.6355 136.58C76.8121 136.682 76.96 136.827 77.0653 137.002C77.1706 137.177 77.2299 137.376 77.2378 137.58C77.34 138.085 77.5067 139.414 77.5067 139.414C77.5067 139.414 77.227 140.027 75.9849 139.774L75.2482 136.359Z" fill="#263238"/>
<path d="M71.7044 156.126C71.7044 156.126 71.6399 156.126 71.4409 156.25C71.2151 156.391 71.018 156.573 70.8602 156.788C70.8391 156.944 70.8512 157.103 70.8956 157.254C70.9401 157.405 71.016 157.545 71.1183 157.664C71.3205 157.969 71.4272 158.326 71.4248 158.691C71.4421 158.927 71.5084 159.156 71.6195 159.365C71.7307 159.573 71.8841 159.756 72.0701 159.901C72.4035 160.133 72.8175 160.369 73.0004 160.31C73.1832 160.251 73.1993 160.02 72.9627 158.998C72.7653 158.324 72.6249 157.636 72.5433 156.938L71.7044 156.126Z" fill="#263238"/>
<path d="M71.8496 155.933L71.6292 156.229C71.5945 156.274 71.5702 156.326 71.5581 156.382C71.546 156.438 71.5464 156.496 71.5593 156.551C71.5922 156.751 71.6952 156.932 71.8496 157.062C71.9377 157.128 72.0464 157.161 72.1561 157.154C72.2318 157.148 72.3054 157.126 72.3722 157.09C72.4389 157.054 72.4972 157.004 72.5433 156.944L72.7154 156.713L71.8496 155.933Z" fill="#B16668"/>
<path d="M77.0764 143.269L75.7912 143.753L74.7157 145.667H74.7856L75.3556 150.163C74.905 150.468 74.5208 150.861 74.2264 151.319C73.7532 152.05 71.8711 155.933 71.8711 155.933C71.8711 155.933 72.0916 156.799 72.7368 156.713C72.7368 156.713 73.737 155.465 74.8125 154.099C75.7297 153.011 76.5809 151.869 77.3614 150.679C77.8561 148.937 77.0764 143.269 77.0764 143.269Z" fill="#FFD2D2"/>
<path d="M74.2049 151.319C73.7317 152.05 71.8496 155.933 71.8496 155.933C71.8496 155.933 72.0701 156.799 72.7154 156.713C72.7154 156.713 73.7156 155.465 74.791 154.099L74.2049 151.319Z" fill="#FFD2D2"/>
<path opacity="0.2" d="M74.2049 151.319C73.7317 152.05 71.8496 155.933 71.8496 155.933C71.8496 155.933 72.0701 156.799 72.7154 156.713C72.7154 156.713 73.7156 155.465 74.791 154.099L74.2049 151.319Z" fill="black"/>
<path d="M74.3609 158.718C74.6703 158.485 75.0105 158.295 75.3718 158.154C75.5375 158.158 75.7027 158.172 75.8666 158.197C76.0131 158.213 76.161 158.213 76.3075 158.197C76.6173 158.13 76.9212 158.038 77.2163 157.922C77.3423 157.865 77.4766 157.829 77.6142 157.815C77.8454 157.815 78.0283 157.815 78.0767 158.084C78.0902 158.166 78.0902 158.249 78.0767 158.331C78.051 158.569 77.9688 158.798 77.8369 158.998C77.7051 159.199 77.5273 159.364 77.3184 159.482C77.1302 159.573 76.8829 159.638 76.6839 159.713C76.383 159.793 76.0897 159.899 75.8074 160.03C75.3826 160.305 74.9793 160.568 74.4738 160.299C74.3704 160.256 74.2799 160.187 74.2111 160.098C74.1423 160.01 74.0976 159.905 74.0813 159.794C74.0114 159.482 74.3555 159.003 74.3609 158.718Z" fill="#263238"/>
<path d="M76.9205 143.033L71.9411 143.35C71.5862 144.484 71.5916 145.501 71.9841 147.706C72.2673 149.125 72.6556 150.522 73.1456 151.884C72.9187 152.633 72.9075 153.43 73.1133 154.185C73.522 155.535 74.3017 158.95 74.3017 158.95C74.6639 158.612 75.0849 158.344 75.5439 158.159C75.5439 158.159 75.3019 156.1 75.1836 154.734C75.0653 153.368 74.9954 152.228 74.9524 151.384C74.8825 150.039 74.6889 145.668 74.6889 145.668H74.7588C74.7588 145.668 76.5818 145.001 76.9098 143.517L76.9205 143.033Z" fill="#FFD2D2"/>
<path opacity="0.2" d="M74.6942 145.668C75.295 145.387 75.8541 145.025 76.3558 144.592L75.0653 145.802L75.2965 149.851L74.6942 145.668Z" fill="black"/>
<path d="M70.231 142.038C70.4161 140.522 70.6926 139.019 71.0591 137.537C71.0986 137.318 71.2052 137.116 71.3641 136.96C71.5231 136.804 71.7265 136.701 71.9464 136.666C73.3607 137.429 73.3499 138.446 72.1454 139.666C72.1454 139.666 71.6399 141.645 71.484 142.608C71.32 143.475 71.2408 144.355 71.2474 145.237C71.2573 145.365 71.3126 145.485 71.4033 145.576C71.6007 145.788 71.7639 146.029 71.8873 146.291C72.0163 146.506 72.1508 146.576 72.1131 146.63C72.068 146.684 72.0041 146.719 71.9344 146.728C71.8646 146.737 71.794 146.719 71.7367 146.678C71.6065 146.591 71.4873 146.488 71.3818 146.372C71.4241 146.649 71.5093 146.917 71.6345 147.168C71.9249 147.743 71.8765 148.044 71.0968 147.878C70.5913 147.77 70.2579 147.372 70.1235 146.178C70.0668 145.74 70.0399 145.298 70.0428 144.856C70.0751 143.716 70.1665 142.726 70.231 142.038Z" fill="#B16668"/>
<path d="M73.4736 136.413L71.9464 136.666C73.3607 137.661 72.1454 139.666 72.1454 139.666L72.8982 141.758C72.5247 142.261 72.2057 142.801 71.9464 143.371C72.4089 143.775 75.1728 144.726 77.0764 143.291C77.0764 143.291 76.9689 142.532 76.743 141.387C77.1302 139.527 77.2377 138.87 77.1248 138.435C76.8076 137.209 76.0816 136.429 75.2535 136.381L73.4736 136.413Z" fill="#455A64"/>
<path d="M76.243 131.799C76.5119 131.961 76.8453 132.638 76.813 134.063C76.7861 135.273 76.3936 135.574 76.1946 135.676C75.8829 135.739 75.5611 135.73 75.2536 135.649V136.359C75.2536 136.359 75.759 136.951 75.7268 137.284C75.6945 137.618 74.9954 137.698 74.5169 137.37C74.1703 137.104 73.8721 136.78 73.635 136.413V134.746C73.635 134.746 73.4199 134.956 73.0488 134.639C72.9012 134.533 72.8011 134.373 72.7699 134.194C72.7388 134.015 72.779 133.831 72.8821 133.681C72.9442 133.627 73.018 133.587 73.0979 133.565C73.1779 133.544 73.2617 133.541 73.3428 133.557C73.424 133.573 73.5004 133.608 73.566 133.658C73.6316 133.709 73.6846 133.774 73.721 133.848C74.205 133.828 74.6764 133.688 75.0922 133.439C75.3999 133.276 75.6647 133.043 75.8647 132.758C76.0647 132.473 76.1943 132.144 76.243 131.799Z" fill="#B16668"/>
<path d="M75.4579 133.762C75.4578 133.791 75.4492 133.82 75.4331 133.844C75.4169 133.869 75.394 133.888 75.3671 133.9C75.3402 133.911 75.3105 133.915 75.2817 133.91C75.2528 133.905 75.226 133.892 75.2046 133.872C75.1831 133.852 75.168 133.826 75.1611 133.797C75.1541 133.769 75.1556 133.739 75.1653 133.711C75.1751 133.684 75.1927 133.66 75.216 133.642C75.2393 133.624 75.2673 133.614 75.2966 133.611C75.317 133.611 75.3374 133.614 75.3566 133.621C75.3758 133.628 75.3934 133.639 75.4084 133.653C75.4234 133.667 75.4355 133.684 75.444 133.703C75.4525 133.721 75.4572 133.742 75.4579 133.762Z" fill="#263238"/>
<path d="M75.5009 134.789L75.8504 134.897C75.8442 134.921 75.8333 134.943 75.8181 134.963C75.803 134.982 75.7841 134.999 75.7624 135.011C75.7408 135.023 75.717 135.03 75.6923 135.033C75.6677 135.036 75.6428 135.033 75.6192 135.026C75.5723 135.01 75.5336 134.976 75.5114 134.932C75.4893 134.887 75.4855 134.836 75.5009 134.789Z" fill="#9A4A4D"/>
<path d="M76.7054 133.294L76.3989 133.084C76.4109 133.063 76.4273 133.045 76.447 133.03C76.4667 133.016 76.4892 133.006 76.5131 133C76.5371 132.995 76.5618 132.995 76.5857 133.001C76.6095 133.006 76.632 133.016 76.6517 133.031C76.693 133.059 76.7217 133.102 76.7318 133.152C76.7418 133.201 76.7324 133.252 76.7054 133.294Z" fill="#263238"/>
<path d="M76.6355 133.671C76.6397 133.693 76.639 133.716 76.6332 133.739C76.6275 133.761 76.6169 133.781 76.6023 133.799C76.5876 133.817 76.5693 133.831 76.5485 133.841C76.5278 133.85 76.5052 133.855 76.4822 133.855C76.4593 133.855 76.4367 133.85 76.4159 133.841C76.3952 133.831 76.3768 133.817 76.3622 133.799C76.3476 133.781 76.337 133.761 76.3313 133.739C76.3255 133.716 76.3247 133.693 76.329 133.671C76.3275 133.65 76.3302 133.63 76.3367 133.611C76.3433 133.592 76.3537 133.574 76.3672 133.559C76.3808 133.544 76.3973 133.532 76.4156 133.523C76.434 133.515 76.4539 133.51 76.4742 133.509C76.4956 133.509 76.5169 133.512 76.5368 133.52C76.5567 133.528 76.5748 133.54 76.5899 133.555C76.605 133.57 76.6169 133.588 76.6247 133.608C76.6326 133.628 76.6362 133.649 76.6355 133.671Z" fill="#263238"/>
<path d="M75.9149 133.563L75.9418 134.477L76.4204 134.332L75.9149 133.563Z" fill="#9A4A4D"/>
<path d="M75.2481 135.633C74.8556 135.58 74.0597 135.348 73.936 135.036C73.9838 135.197 74.0817 135.339 74.2157 135.44C74.5388 135.63 74.886 135.777 75.2481 135.875V135.633Z" fill="#9A4A4D"/>
<path d="M72.4949 140.645L73.5596 142.086L72.8982 141.758L72.4949 140.645Z" fill="#263238"/>
<path d="M72.839 130.519C73.0409 130.634 73.2028 130.807 73.303 131.017C73.4031 131.226 73.4367 131.461 73.3992 131.69C73.3617 131.919 73.2549 132.131 73.0932 132.297C72.9315 132.464 72.7227 132.576 72.4949 132.621C72.2671 132.665 72.0312 132.638 71.8191 132.544C71.6071 132.449 71.429 132.293 71.3088 132.094C71.1887 131.896 71.1323 131.665 71.1473 131.433C71.1622 131.202 71.2478 130.98 71.3925 130.799C71.5527 130.577 71.7916 130.425 72.0603 130.373C72.3291 130.321 72.6076 130.373 72.839 130.519Z" fill="#263238"/>
<path d="M71.941 136.666C71.7205 136.72 71.1559 136.666 70.8655 137.784C70.5752 138.903 70.3923 139.978 70.3923 139.978C70.5882 140.202 70.8448 140.365 71.1312 140.446C71.4175 140.527 71.7213 140.523 72.0055 140.435C72.0055 140.435 72.3712 139.317 72.6078 138.58C72.8444 137.843 72.7154 136.935 71.941 136.666Z" fill="#263238"/>
<path d="M34.7836 118.356C34.5586 117.104 34.4935 115.828 34.59 114.559C34.5913 114.529 34.6027 114.499 34.6224 114.476C34.6421 114.452 34.6691 114.436 34.6991 114.429C34.7291 114.422 34.7605 114.425 34.7884 114.438C34.8163 114.451 34.8392 114.473 34.8535 114.5L35.8268 116.302C35.8268 116.302 35.9397 117.624 36.0634 118.528C36.1485 119.349 36.3161 120.16 36.5635 120.948C36.6067 121.06 36.6887 121.154 36.7947 121.211C37.029 121.349 37.2412 121.521 37.4239 121.722C37.596 121.878 37.7358 121.91 37.7196 121.964C37.6924 122.024 37.6439 122.073 37.5834 122.099C37.5228 122.126 37.4546 122.13 37.3916 122.109C37.2508 122.066 37.1155 122.006 36.9883 121.932C37.102 122.169 37.2526 122.387 37.4346 122.577C37.8541 123.018 37.8917 123.303 37.1227 123.368C36.6388 123.411 36.2355 123.142 35.7892 122.109C35.6207 121.73 35.477 121.34 35.359 120.942C35.0955 119.904 34.9126 118.99 34.7836 118.356Z" fill="#FFA8A7"/>
<path d="M33.5306 114.006C34.2673 114.006 35.1438 114.242 35.5095 114.92C35.8237 115.788 36.0349 116.691 36.1387 117.608C36.1387 117.608 35.859 118.211 34.8266 118.146L33.5306 114.006Z" fill="#FFD2D2"/>
<path opacity="0.2" d="M33.5306 114.006C34.2673 114.006 35.1438 114.242 35.5095 114.92C35.8237 115.788 36.0349 116.691 36.1387 117.608C36.1387 117.608 35.859 118.211 34.8266 118.146L33.5306 114.006Z" fill="black"/>
<path d="M27.6424 132.16C27.4596 132.068 27.3413 132.299 27.1746 132.488C27.0298 132.623 26.9193 132.791 26.8519 132.977C26.8557 133.124 26.8913 133.268 26.9563 133.4C27.0213 133.532 27.1141 133.648 27.2283 133.74C27.3628 133.824 27.4795 133.932 27.5718 134.061C27.6641 134.189 27.7301 134.334 27.7661 134.488C27.7855 134.682 27.8602 134.866 27.9813 135.018C28.1024 135.171 28.2647 135.285 28.449 135.348C28.6602 135.437 28.8868 135.482 29.1158 135.482C29.3447 135.482 29.5714 135.437 29.7826 135.348C30.0407 135.182 29.7826 134.999 29.4438 134.483C28.976 133.81 28.6103 133.326 28.6103 132.697L27.6424 132.16Z" fill="#263238"/>
<path d="M28.0189 131.611L27.6317 132.176C27.5904 132.233 27.561 132.299 27.5452 132.368C27.5293 132.437 27.5273 132.509 27.5393 132.579C27.5513 132.649 27.5771 132.716 27.6151 132.776C27.6531 132.836 27.7026 132.888 27.7608 132.928C27.8779 132.998 28.0159 133.025 28.1506 133.003C28.2853 132.982 28.4081 132.913 28.4975 132.81L29.1051 132.154L28.0189 131.611Z" fill="#FFA8A7"/>
<path d="M35.1277 120.539C35.1277 121.265 34.9448 124.185 34.4447 125.475C33.9446 126.766 33.6596 127.573 33.5037 127.841C33.3477 128.11 28.82 132.52 28.82 132.52C28.6043 132.502 28.4004 132.413 28.2394 132.269C28.0783 132.124 27.9687 131.931 27.9274 131.719C27.9274 131.719 29.7826 128.562 30.1859 127.917C30.7155 127.289 31.3289 126.737 32.0088 126.277L31.8797 120.625L35.1277 120.539Z" fill="#37474F"/>
<path d="M34.1331 135.937L35.0875 135.72L34.7714 134.325L33.8169 134.542L34.1331 135.937Z" fill="#FFA8A7"/>
<path d="M35.1277 120.539H30.5354C30.4369 121.211 30.3794 121.888 30.3634 122.566C30.3257 124.556 32.1809 128.17 32.1809 128.17C32.0889 128.974 32.1289 129.787 32.2992 130.579C32.7268 132.028 33.2312 133.453 33.8102 134.848C33.9947 134.876 34.1829 134.863 34.3621 134.811C34.5412 134.759 34.7069 134.669 34.8481 134.547C34.8481 134.547 34.2351 129.1 34.0684 127.702C33.8909 126.191 33.4338 123.432 33.4338 123.432C33.7368 123.129 34.0121 122.8 34.2566 122.448C34.6814 121.882 34.9786 121.231 35.1277 120.539Z" fill="#37474F"/>
<path d="M28.7124 119.469C28.9222 117.345 29.6911 115.785 29.7879 115.248L30.4171 117.883C30.1979 118.58 30.0183 119.289 29.8793 120.007C29.7241 120.818 29.6485 121.643 29.6535 122.47C29.664 122.588 29.7175 122.699 29.804 122.781C29.9924 122.98 30.1485 123.207 30.2665 123.454C30.3902 123.653 30.5139 123.722 30.4816 123.765C30.4394 123.817 30.3794 123.85 30.3136 123.859C30.2478 123.868 30.181 123.852 30.1267 123.814C30.005 123.73 29.8931 123.633 29.7933 123.523C29.8314 123.784 29.9113 124.036 30.0299 124.271C30.3041 124.809 30.2611 125.099 29.4921 124.938C29.0189 124.836 28.7071 124.465 28.5834 123.325C28.5287 122.913 28.5035 122.498 28.5081 122.082C28.5672 121.045 28.6533 120.114 28.7124 119.469Z" fill="#FFA8A7"/>
<path d="M32.0142 114.049C31.1323 114.264 29.9331 114.538 29.5836 115.49C29.2973 116.398 29.0568 117.321 28.863 118.254C29.0556 118.438 29.289 118.574 29.5441 118.65C29.7993 118.727 30.0689 118.742 30.3311 118.695L30.5354 117.979V120.539C31.2237 121.292 33.622 121.641 35.1277 120.539V115.759C35.1423 115.536 35.1116 115.313 35.0375 115.103C34.9634 114.893 34.8474 114.7 34.6965 114.537C34.5457 114.373 34.3632 114.241 34.16 114.15C33.9568 114.058 33.7372 114.009 33.5145 114.006L32.0142 114.049Z" fill="#FFD2D2"/>
<path opacity="0.2" d="M30.5354 117.979L30.9763 116.592L30.5354 118.603V117.979Z" fill="black"/>
<path d="M35.289 110.833C35.2922 111.106 35.2142 111.374 35.0649 111.602C34.9156 111.83 34.7017 112.009 34.4505 112.116C34.1992 112.223 33.922 112.252 33.6539 112.201C33.3858 112.15 33.139 112.02 32.9448 111.828C32.7507 111.636 32.618 111.391 32.5635 111.124C32.5091 110.856 32.5354 110.578 32.6391 110.326C32.7428 110.073 32.9192 109.858 33.146 109.706C33.3727 109.554 33.6394 109.472 33.9124 109.472C34.2747 109.472 34.6224 109.615 34.8801 109.87C35.1379 110.125 35.2848 110.471 35.289 110.833Z" fill="#263238"/>
<path d="M31.6808 110.139C31.6025 110.131 31.5234 110.141 31.449 110.167C31.3747 110.193 31.307 110.235 31.2507 110.29C31.0625 110.483 31.1055 110.827 31.2507 111.639L31.826 111.709L31.6808 110.139Z" fill="#263238"/>
<path d="M31.9497 111.709C31.869 111.758 31.7453 111.596 31.6378 111.484C31.5962 111.437 31.5434 111.402 31.4844 111.381C31.4255 111.36 31.3622 111.354 31.3005 111.365C31.2388 111.375 31.1807 111.4 31.1315 111.439C31.0824 111.478 31.0438 111.528 31.0194 111.586C30.8473 111.951 31.2399 112.441 31.4765 112.602C31.5402 112.659 31.6207 112.694 31.706 112.702C31.7912 112.71 31.8767 112.69 31.9497 112.645L32.0142 114.049C32.1172 114.274 32.2741 114.47 32.4711 114.62C32.668 114.77 32.899 114.869 33.1435 114.909C33.9716 115.022 33.7995 114.339 33.5306 114.006V113.495C33.7373 113.539 33.9497 113.55 34.1598 113.527C34.3989 113.351 34.585 113.113 34.6975 112.839C35.0491 112.141 35.1277 111.338 34.918 110.586C34.6222 109.327 33.2671 109.29 32.4605 109.795C31.6539 110.301 31.9497 111.709 31.9497 111.709Z" fill="#FFA8A7"/>
<path d="M31.9496 111.849C31.912 111.849 31.7453 111.58 31.6377 111.484C31.5302 111.387 31.6807 110.139 31.6807 110.139C31.6411 110.01 31.6336 109.872 31.6589 109.739C31.6842 109.606 31.7415 109.482 31.8259 109.376C32.1163 109.069 32.6809 109.123 33.0896 109.107C33.7064 109.075 34.3247 109.09 34.9394 109.15C35.0432 109.147 35.1437 109.186 35.2191 109.257C35.2442 109.299 35.26 109.345 35.2656 109.394C35.2712 109.442 35.2663 109.491 35.2513 109.537C35.1942 109.807 35.0513 110.051 34.8439 110.234C34.6365 110.416 34.3757 110.526 34.1006 110.548C33.5539 110.546 33.0105 110.465 32.4873 110.306C32.3314 110.306 32.2991 110.435 32.2131 110.844C32.1271 111.252 32.0948 111.849 31.9496 111.849Z" fill="#263238"/>
<path d="M31.6862 110.231L31.1484 109.956C31.165 109.922 31.1883 109.892 31.2169 109.866C31.2454 109.841 31.2787 109.822 31.3148 109.81C31.3509 109.798 31.389 109.794 31.4269 109.796C31.4649 109.799 31.5018 109.81 31.5356 109.827C31.6087 109.861 31.6654 109.923 31.6936 109.998C31.7218 110.074 31.7191 110.157 31.6862 110.231Z" fill="#263238"/>
<path d="M33.5252 113.495C33.1747 113.427 32.8309 113.328 32.4981 113.199C32.3396 113.118 32.21 112.991 32.1271 112.833C32.1667 112.99 32.238 113.136 32.3368 113.263C32.5304 113.516 33.5252 113.699 33.5252 113.699V113.495Z" fill="#F28F8F"/>
<path d="M33.5521 111.677C33.5564 111.7 33.5556 111.723 33.5498 111.745C33.5441 111.767 33.5335 111.788 33.5189 111.806C33.5043 111.823 33.4859 111.837 33.4652 111.847C33.4444 111.857 33.4218 111.862 33.3989 111.862C33.3759 111.862 33.3533 111.857 33.3326 111.847C33.3118 111.837 33.2935 111.823 33.2788 111.806C33.2642 111.788 33.2536 111.767 33.2479 111.745C33.2422 111.723 33.2414 111.7 33.2456 111.677C33.2414 111.655 33.2422 111.631 33.2479 111.609C33.2536 111.587 33.2642 111.566 33.2788 111.549C33.2935 111.531 33.3118 111.517 33.3326 111.507C33.3533 111.497 33.3759 111.492 33.3989 111.492C33.4218 111.492 33.4444 111.497 33.4652 111.507C33.4859 111.517 33.5043 111.531 33.5189 111.549C33.5335 111.566 33.5441 111.587 33.5498 111.609C33.5556 111.631 33.5564 111.655 33.5521 111.677Z" fill="#263238"/>
<path d="M33.3908 111.086L33.0628 111.268C33.0392 111.223 33.0338 111.171 33.0478 111.122C33.0618 111.073 33.0941 111.031 33.138 111.005C33.1598 110.993 33.1838 110.986 33.2085 110.983C33.2332 110.981 33.2581 110.983 33.2818 110.991C33.3054 110.999 33.3273 111.011 33.346 111.027C33.3648 111.043 33.38 111.063 33.3908 111.086Z" fill="#263238"/>
<path d="M33.4607 112.699L33.8102 112.828C33.8024 112.852 33.7898 112.874 33.7733 112.893C33.7568 112.912 33.7367 112.927 33.7142 112.938C33.6916 112.949 33.6671 112.955 33.642 112.957C33.617 112.958 33.5919 112.955 33.5682 112.946C33.5447 112.937 33.5232 112.924 33.505 112.906C33.4868 112.889 33.4723 112.868 33.4623 112.845C33.4522 112.822 33.4469 112.797 33.4467 112.772C33.4464 112.747 33.4512 112.722 33.4607 112.699Z" fill="#F28F8F"/>
<path d="M34.918 111.231L34.6168 111C34.6308 110.979 34.6488 110.961 34.6699 110.948C34.6909 110.934 34.7145 110.925 34.7392 110.921C34.7639 110.917 34.7892 110.918 34.8135 110.924C34.8377 110.93 34.8605 110.941 34.8803 110.957C34.9188 110.99 34.9439 111.036 34.9508 111.087C34.9577 111.137 34.9461 111.188 34.918 111.231Z" fill="#263238"/>
<path d="M34.8373 111.623C34.8415 111.646 34.8407 111.669 34.835 111.691C34.8292 111.713 34.8187 111.734 34.8041 111.752C34.7894 111.769 34.7711 111.784 34.7503 111.793C34.7296 111.803 34.7069 111.808 34.684 111.808C34.6611 111.808 34.6385 111.803 34.6177 111.793C34.597 111.784 34.5786 111.769 34.564 111.752C34.5494 111.734 34.5388 111.713 34.533 111.691C34.5273 111.669 34.5265 111.646 34.5308 111.623C34.5265 111.601 34.5273 111.578 34.533 111.555C34.5388 111.533 34.5494 111.513 34.564 111.495C34.5786 111.477 34.597 111.463 34.6177 111.453C34.6385 111.444 34.6611 111.439 34.684 111.439C34.7069 111.439 34.7296 111.444 34.7503 111.453C34.7711 111.463 34.7894 111.477 34.8041 111.495C34.8187 111.513 34.8292 111.533 34.835 111.555C34.8407 111.578 34.8415 111.601 34.8373 111.623Z" fill="#263238"/>
<path d="M34.106 111.618L33.9608 112.527L34.4663 112.468L34.106 111.618Z" fill="#F28F8F"/>
<path d="M34.9772 135.252L34.9449 135.112C35.0471 135.112 35.4826 135.843 35.9021 136.155C36.3215 136.467 36.7732 136.693 36.9776 136.849C37.1819 137.005 36.8539 137.472 36.1656 137.51C35.764 137.534 35.3642 137.44 35.0148 137.241C34.8212 137.064 34.6814 136.763 34.5309 136.628C34.3803 136.494 34.0738 136.386 33.9931 136.219C33.9279 136.048 33.9075 135.863 33.934 135.682C33.934 135.504 33.934 135.305 34.0039 135.311V135.413C34.1836 135.504 34.3833 135.548 34.5846 135.542C34.7567 135.558 35.0578 135.52 34.9772 135.252Z" fill="#263238"/>
<path d="M33.9501 126.777C33.9501 126.777 33.5414 123.884 33.4124 123.432C33.7396 123.256 34.0431 123.039 34.3158 122.787C34.1265 123.058 33.92 123.317 33.6974 123.561L33.9501 126.777Z" fill="#263238"/>
<path d="M31.4926 126.68C31.6903 127.191 31.9202 127.688 32.1809 128.17C32.1809 128.17 32.1271 129.1 32.1378 129.288L31.8797 129.508C31.8734 129.088 31.9113 128.668 31.9926 128.256C31.7697 127.75 31.602 127.222 31.4926 126.68Z" fill="#263238"/>
</svg>
