<svg width="10" height="15" viewBox="0 0 10 15" fill="none" xmlns="http://www.w3.org/2000/svg">
<path d="M0.958374 13.9458C0.750041 13.7688 0.645874 13.5591 0.645874 13.3168C0.645874 13.0751 0.750041 12.8656 0.958374 12.6885L7.06254 7.5L0.937541 2.29375C0.743096 2.12847 0.645874 1.92188 0.645874 1.67396C0.645874 1.42604 0.750041 1.21354 0.958374 1.03646C1.16671 0.859378 1.41337 0.770836 1.69837 0.770836C1.98282 0.770836 2.22921 0.859378 2.43754 1.03646L9.43754 7.00417C9.52087 7.075 9.58004 7.15174 9.61504 7.23438C9.64949 7.31702 9.66671 7.40556 9.66671 7.5C9.66671 7.59445 9.64949 7.68299 9.61504 7.76563C9.58004 7.84827 9.52087 7.925 9.43754 7.99584L2.41671 13.9635C2.22226 14.1288 1.98282 14.2115 1.69837 14.2115C1.41337 14.2115 1.16671 14.1229 0.958374 13.9458Z" fill="#9F9F9F"/>
</svg>
