<svg width="18" height="20" viewBox="0 0 18 20" fill="none" xmlns="http://www.w3.org/2000/svg">
<path d="M16.1477 12.0581L14.625 10.3663V8.125C14.6233 6.57615 14.1047 5.08303 13.1696 3.93436C12.2345 2.7857 10.9493 2.06308 9.5625 1.90625V0.625H8.4375V1.90625C7.0507 2.06308 5.76549 2.7857 4.83039 3.93436C3.8953 5.08303 3.37674 6.57615 3.375 8.125V10.3663L1.85231 12.0581C1.74682 12.1753 1.68753 12.3343 1.6875 12.5V14.375C1.6875 14.5408 1.74676 14.6997 1.85225 14.8169C1.95774 14.9342 2.10082 15 2.25 15H6.1875V15.4856C6.17526 16.2785 6.42679 17.0486 6.89388 17.6482C7.36097 18.2478 8.01076 18.6348 8.71875 18.735C9.10979 18.7781 9.50461 18.7298 9.87783 18.5931C10.251 18.4565 10.5944 18.2346 10.8858 17.9416C11.1772 17.6487 11.4102 17.2913 11.5698 16.8923C11.7294 16.4933 11.8121 16.0616 11.8125 15.625V15H15.75C15.8992 15 16.0423 14.9342 16.1477 14.8169C16.2532 14.6997 16.3125 14.5408 16.3125 14.375V12.5C16.3125 12.3343 16.2532 12.1753 16.1477 12.0581ZM10.6875 15.625C10.6875 16.1223 10.5097 16.5992 10.1932 16.9508C9.87678 17.3025 9.44755 17.5 9 17.5C8.55245 17.5 8.12322 17.3025 7.80676 16.9508C7.49029 16.5992 7.3125 16.1223 7.3125 15.625V15H10.6875V15.625ZM15.1875 13.75H2.8125V12.7588L4.33519 11.0669C4.44068 10.9497 4.49997 10.7907 4.5 10.625V8.125C4.5 6.79892 4.97411 5.52715 5.81802 4.58947C6.66193 3.65178 7.80653 3.125 9 3.125C10.1935 3.125 11.3381 3.65178 12.182 4.58947C13.0259 5.52715 13.5 6.79892 13.5 8.125V10.625C13.5 10.7907 13.5593 10.9497 13.6648 11.0669L15.1875 12.7588V13.75Z" fill="white"/>
</svg>
